<svg xmlns="http://www.w3.org/2000/svg" width="84.949" height="100" viewBox="0 0 84.949 100">
  <g id="Grupo_1108003" data-name="Grupo 1108003" transform="translate(-180.051 -5344)">
    <rect id="Rectángulo_402687" data-name="Rectángulo 402687" width="84.949" height="100" transform="translate(180.051 5344)" fill="#94dab2"/>
    <g id="Grupo_1108002" data-name="Grupo 1108002" transform="translate(193.051 5320.952)">
      <path id="Trazado_898085" data-name="Trazado 898085" d="M112.661,335.623a3.5,3.5,0,0,1-3.5-3.5v14.381h4.6V335.623Z" transform="translate(-96.434 -250.068)" fill="#d88a55"/>
      <path id="Trazado_898086" data-name="Trazado 898086" d="M109.163,332.125v14.381H111.5V335.423A3.5,3.5,0,0,1,109.163,332.125Z" transform="translate(-96.434 -250.068)" fill="#c57a44"/>
      <path id="Trazado_898087" data-name="Trazado 898087" d="M356.106,362.122h4.6V373h-4.6Z" transform="translate(-314.581 -276.567)" fill="#d88a55"/>
      <path id="Trazado_898088" data-name="Trazado 898088" d="M356.106,362.122h2.332V373h-2.332Z" transform="translate(-314.581 -276.567)" fill="#c57a44"/>
      <path id="Trazado_898089" data-name="Trazado 898089" d="M356.106,424.2h4.6v3.644h-4.6Z" transform="translate(-314.581 -331.408)" fill="#32569d"/>
      <path id="Trazado_898090" data-name="Trazado 898090" d="M356.106,424.2h2.332v3.644h-2.332Z" transform="translate(-314.581 -331.408)" fill="#303a78"/>
      <path id="Trazado_898091" data-name="Trazado 898091" d="M143.588,118.24H125.937a4.356,4.356,0,0,1-4.718,1.384l-.153-.05v5.975a8.935,8.935,0,0,1-1.3,4.64,4.286,4.286,0,0,1,.215,1.339v.325a4.335,4.335,0,0,1-4.323,4.323h-6.494v7a3.5,3.5,0,0,0,3.5,3.5h4.531a1.166,1.166,0,0,1,1.166,1.166v9.717h4.6v-9.717a1.166,1.166,0,0,1,1.166-1.166h21.866a1.166,1.166,0,0,1,1.166,1.166v9.717h4.6V126.4a8.162,8.162,0,0,0-8.162-8.162Z" transform="translate(-96.433 -61.124)" fill="#ea9b58"/>
      <path id="Trazado_898092" data-name="Trazado 898092" d="M112.661,279.063v-7h-3.5v7a3.5,3.5,0,0,0,3.5,3.5h3.5A3.5,3.5,0,0,1,112.661,279.063Z" transform="translate(-96.434 -197.006)" fill="#d88a55"/>
      <path id="Trazado_898093" data-name="Trazado 898093" d="M78.241,60.981v-2.91a1.527,1.527,0,0,0-1.523-1.523H76.6a1.527,1.527,0,0,0-1.523,1.523v2.91Z" transform="translate(-66.327 -6.625)" fill="#e7b795"/>
      <path id="Trazado_898094" data-name="Trazado 898094" d="M169.2,60.981v-2.91a1.527,1.527,0,0,0-1.523-1.523h-.114a1.527,1.527,0,0,0-1.523,1.523v2.91Z" transform="translate(-146.683 -6.625)" fill="#e7b795"/>
      <path id="Trazado_898095" data-name="Trazado 898095" d="M216.731,94.561h-4.482v4.256a4.477,4.477,0,0,0,5.582-2.7A1.163,1.163,0,0,0,216.731,94.561Z" transform="translate(-187.499 -40.206)" fill="#f6a96c"/>
      <path id="Trazado_898096" data-name="Trazado 898096" d="M13.143,94.561H8.66a1.163,1.163,0,0,0-1.1,1.556,4.477,4.477,0,0,0,5.582,2.7V94.561Z" transform="translate(-6.616 -40.206)" fill="#f6a96c"/>
      <path id="Trazado_898097" data-name="Trazado 898097" d="M9.894,96.116a1.163,1.163,0,0,1,1.1-1.556H8.661a1.163,1.163,0,0,0-1.1,1.556,4.478,4.478,0,0,0,5.363,2.765A4.485,4.485,0,0,1,9.894,96.116Z" transform="translate(-6.616 -40.205)" fill="#ea9b58"/>
      <path id="Trazado_898098" data-name="Trazado 898098" d="M55.973,94.561v10.071a9.037,9.037,0,0,0,1.372,4.79,4.339,4.339,0,0,1,4.154-3.133H68.67a4.339,4.339,0,0,1,4.154,3.133,9.036,9.036,0,0,0,1.372-4.79V94.561Z" transform="translate(-49.446 -40.206)" fill="#d88a55"/>
      <path id="Trazado_898099" data-name="Trazado 898099" d="M59.706,106.681a9.048,9.048,0,0,1-.235-2.05V94.561h-3.5v10.071a9.037,9.037,0,0,0,1.372,4.79A4.357,4.357,0,0,1,59.706,106.681Z" transform="translate(-49.446 -40.206)" fill="#c57a44"/>
      <path id="Trazado_898100" data-name="Trazado 898100" d="M77.786,204.1H70.616a4.335,4.335,0,0,1-4.323-4.323v-.325a4.335,4.335,0,0,1,4.323-4.323h7.171a4.335,4.335,0,0,1,4.323,4.323v.325A4.335,4.335,0,0,1,77.786,204.1Z" transform="translate(-58.563 -129.049)" fill="#edcab2"/>
      <path id="Trazado_898101" data-name="Trazado 898101" d="M68.858,199.78v-.325a4.335,4.335,0,0,1,4.323-4.323H70.616a4.335,4.335,0,0,0-4.323,4.323v.325a4.335,4.335,0,0,0,4.323,4.323h2.565A4.336,4.336,0,0,1,68.858,199.78Z" transform="translate(-58.563 -129.05)" fill="#e7b795"/>
      <path id="Trazado_898102" data-name="Trazado 898102" d="M109.163,424.2h4.6v3.644h-4.6Z" transform="translate(-96.434 -331.408)" fill="#32569d"/>
      <path id="Trazado_898103" data-name="Trazado 898103" d="M109.163,424.2H111.5v3.644h-2.332Z" transform="translate(-96.434 -331.408)" fill="#303a78"/>
      <path id="Trazado_898104" data-name="Trazado 898104" d="M434.961,424.2h4.6v3.644h-4.6Z" transform="translate(-384.241 -331.408)" fill="#32569d"/>
      <path id="Trazado_898105" data-name="Trazado 898105" d="M434.961,424.2h2.332v3.644h-2.332Z" transform="translate(-384.241 -331.408)" fill="#303a78"/>
      <path id="Trazado_898106" data-name="Trazado 898106" d="M188.018,424.2h4.6v3.644h-4.6Z" transform="translate(-166.094 -331.408)" fill="#32569d"/>
      <path id="Trazado_898107" data-name="Trazado 898107" d="M188.018,424.2h2.332v3.644h-2.332Z" transform="translate(-166.094 -331.408)" fill="#303a78"/>
      <path id="Trazado_898108" data-name="Trazado 898108" d="M58.829,95.563H56.192V75.318a.875.875,0,0,0-1.749,0v16.6H51.594v-5.2a2.043,2.043,0,0,0-2.041-2.041H34.671a.875.875,0,0,0,0,1.749H40.65v9.134H39.431V94.022a.875.875,0,1,0-1.749,0v1.541H36.632V94.022a.875.875,0,1,0-1.749,0v1.541H33.834V94.022a.875.875,0,1,0-1.749,0v1.541H31.036V94.022a.875.875,0,1,0-1.749,0v1.541H27.4V86.721a.292.292,0,0,1,.291-.291h2.824a.875.875,0,0,0,0-1.749H27.688a2.043,2.043,0,0,0-2.041,2.041v5.2H22.8v-5.2a2.043,2.043,0,0,0-2.041-2.041H16.227A2.626,2.626,0,0,1,13.6,82.057V75.927h5.62a5.2,5.2,0,0,0,5.2-5.2v-.325a5.2,5.2,0,0,0-.106-1.048,9.912,9.912,0,0,0,1.309-4.932.875.875,0,0,0-1.749,0,8.178,8.178,0,0,1-.509,2.845,5.192,5.192,0,0,0-4.142-2.063H12.053a5.192,5.192,0,0,0-4.142,2.063A8.178,8.178,0,0,1,7.4,64.426v-9.2H23.875v5.065a.875.875,0,1,0,1.749,0v-.617c.168.016.338.027.51.027a5.371,5.371,0,0,0,3.92-1.714h17.1a7.3,7.3,0,0,1,7.287,7.287V71.2a.875.875,0,0,0,1.749,0v-5.92a9.047,9.047,0,0,0-9.036-9.036H31.141l.01-.026a2.021,2.021,0,0,0-.238-1.856,2.049,2.049,0,0,0-1.681-.879H23.4V51.445a2.4,2.4,0,0,0-2.4-2.4h-.114a2.4,2.4,0,0,0-2.4,2.4v2.035h-5.7V51.445a2.4,2.4,0,0,0-2.4-2.4h-.114a2.4,2.4,0,0,0-2.4,2.4v2.035H2.045a2.049,2.049,0,0,0-1.681.879,2.021,2.021,0,0,0-.238,1.856,5.373,5.373,0,0,0,5.017,3.49c.172,0,.342-.011.51-.027v4.748a9.911,9.911,0,0,0,1.31,4.931,5.2,5.2,0,0,0-.106,1.048v.325a5.2,5.2,0,0,0,5,5.192V95.563H10.748V94.022a.875.875,0,0,0-1.749,0v1.541H8.3V94.022a.875.875,0,0,0-1.749,0v1.541H5.413a.875.875,0,0,0,0,1.749H58.829a.875.875,0,0,0,0-1.749ZM25.625,55.23h3.608a.3.3,0,0,1,.245.129.262.262,0,0,1,.034.249,3.6,3.6,0,0,1-3.887,2.312Zm-5.388-3.785a.649.649,0,0,1,.648-.648H21a.649.649,0,0,1,.648.648v2.035h-1.41V51.445Zm-10.607,0a.649.649,0,0,1,.648-.648h.114a.649.649,0,0,1,.648.648v2.035H9.63V51.445ZM5.652,57.919a3.6,3.6,0,0,1-3.887-2.312.262.262,0,0,1,.034-.248.3.3,0,0,1,.245-.129H5.652ZM8.6,70.73v-.325a3.452,3.452,0,0,1,3.448-3.448h7.171a3.452,3.452,0,0,1,3.448,3.448v.325a3.452,3.452,0,0,1-3.448,3.448H12.053A3.452,3.452,0,0,1,8.6,70.73Zm7.847,24.833H13.6V93.668h2.848Zm0-3.644H13.6V85.553a4.35,4.35,0,0,0,2.623.877h.225Zm4.6,3.644H18.2V86.429h2.557a.292.292,0,0,1,.291.291Zm4.6,0H22.8V93.668h2.848Zm19.6,0H42.4V93.668h2.848Zm0-3.644H42.4v-5.49h2.848Zm4.6,3.644H47V86.429h2.557a.292.292,0,0,1,.291.291Zm4.6,0H51.594V93.668h2.848Z" transform="translate(0)"/>
      <path id="Trazado_898109" data-name="Trazado 898109" d="M93.443,143.432v1.758a.875.875,0,0,0,1.749,0v-1.758a.875.875,0,0,0-1.749,0Z" transform="translate(-82.547 -82.605)"/>
      <path id="Trazado_898110" data-name="Trazado 898110" d="M159.779,143.432v1.758a.875.875,0,1,0,1.749,0v-1.758a.875.875,0,0,0-1.749,0Z" transform="translate(-141.147 -82.605)"/>
      <path id="Trazado_898111" data-name="Trazado 898111" d="M96.888,222.5h-1.4a.875.875,0,0,0,0,1.749h1.4a.875.875,0,0,0,0-1.749Z" transform="translate(-83.581 -153.228)"/>
      <path id="Trazado_898112" data-name="Trazado 898112" d="M149.757,223.377a.875.875,0,0,0-.875-.875h-1.4a.875.875,0,1,0,0,1.749h1.4A.874.874,0,0,0,149.757,223.377Z" transform="translate(-129.513 -153.228)"/>
    </g>
  </g>
</svg>
