<svg xmlns="http://www.w3.org/2000/svg" width="84.949" height="120" viewBox="0 0 84.949 120">
  <g id="Grupo_1108006" data-name="Grupo 1108006" transform="translate(-810.051 -5960)">
    <rect id="Rectángulo_402692" data-name="Rectángulo 402692" width="84.949" height="120" transform="translate(810.051 5960)" fill="#94dab2"/>
    <g id="Grupo_1108004" data-name="Grupo 1108004" transform="translate(818.051 5990)">
      <path id="Trazado_898128" data-name="Trazado 898128" d="M71.876,19.56a3.722,3.722,0,0,0-1.9-2.952c-1.981-1.1-5.256-.637-9.712.9a13.533,13.533,0,0,0-.407-7.436A3.489,3.489,0,0,0,56.88,7.6,3.307,3.307,0,0,0,53.605,9.35a8.636,8.636,0,0,1-4.131,4.155,9.671,9.671,0,0,0-6.084-2.065H32.571a9.655,9.655,0,0,0-6.085,2.065,8.634,8.634,0,0,1-4.129-4.153A3.3,3.3,0,0,0,19.082,7.6,3.492,3.492,0,0,0,16.1,10.077a13.509,13.509,0,0,0-.4,7.427c-4.456-1.533-7.73-1.99-9.712-.9a3.722,3.722,0,0,0-1.9,2.952,9.436,9.436,0,0,0,2.63,7.983c1.978,1.95,5.927,4.023,13.6,3.315-.85,3.069-1.486,5.4-1.494,5.431-.126.53-2.955,12.907,5.382,19.467a23.2,23.2,0,0,0-.2,2.56A4.123,4.123,0,0,0,25.19,61.41a4.8,4.8,0,0,0,2.621,1.226l.013,0a6.57,6.57,0,0,0,6.136,4.2H42a6.57,6.57,0,0,0,6.136-4.2l.013,0a4.758,4.758,0,0,0,2.621-1.226,4.123,4.123,0,0,0,1.189-3.094,23.193,23.193,0,0,0-.2-2.56c8.336-6.561,5.508-18.938,5.372-19.506,0,0-.635-2.325-1.485-5.392,7.676.709,11.625-1.363,13.6-3.315a9.436,9.436,0,0,0,2.63-7.983Zm-16.14-9.048a.875.875,0,0,1,.9-.492,1.038,1.038,0,0,1,.9.756c1.041,3.458.863,6.121-.5,7.939-1.335.536-2.747,1.135-4.247,1.8-.483-1.754-.87-3.158-1.065-3.845a5.416,5.416,0,0,0-.568-1.282,11.7,11.7,0,0,0,4.58-4.878ZM43.391,13.868a7.222,7.222,0,0,1,4.87,1.782,1.356,1.356,0,0,0,.1.1,3.568,3.568,0,0,1,1.033,1.586c.206.726.631,2.269,1.159,4.189-.444.2-.887.406-1.344.619-9.105,4.233-5.992,17.459-4.1,23.269h0a18.637,18.637,0,0,0-6.116-.716c-.667.024-1.347.024-2.014,0a18.361,18.361,0,0,0-6.114.7c1.893-5.817,4.994-19.025-4.1-23.256-.457-.212-.9-.415-1.344-.619.528-1.92.953-3.463,1.158-4.185A3.573,3.573,0,0,1,27.6,15.755c.034-.033.137-.134.168-.171a7.19,7.19,0,0,1,4.8-1.716ZM18.419,10.786a1.042,1.042,0,0,1,.9-.766.876.876,0,0,1,.905.494A11.7,11.7,0,0,0,24.8,15.39a5.438,5.438,0,0,0-.569,1.286c-.194.682-.581,2.086-1.064,3.84-1.5-.667-2.912-1.266-4.247-1.8-1.367-1.818-1.546-4.48-.507-7.93Zm-10,15.029a7.016,7.016,0,0,1-1.926-5.954,1.313,1.313,0,0,1,.663-1.129c1.722-.956,6.152.372,10.475,2.075l.019.007c1.7.669,3.379,1.393,4.871,2.063l-1.5,5.454c-5.855.69-10.21-.162-12.6-2.516ZM21.175,36.889s.884-3.238,1.963-7.119L24.758,23.9l.975.452c8.788,4.085,2.91,20.247,2,22.6-1.472,1.153-2.427,3.578-3.008,6.006-5.858-5.826-3.562-16-3.546-16.071ZM42,64.412h-8.04a4.166,4.166,0,0,1-3.371-1.7h14.8A4.2,4.2,0,0,1,42,64.412Zm7.084-4.749a2.955,2.955,0,0,1-1.857.619H28.7a2.638,2.638,0,0,1-1.82-.619,1.765,1.765,0,0,1-.449-1.323,20.4,20.4,0,0,1,.279-2.973v-.012c.012-.085.024-.146.036-.231a.207.207,0,0,0,.012-.085c.485-2.73,1.444-5.424,2.488-6.225a.824.824,0,0,0,.069-.046,1.188,1.188,0,0,0,.166-.111c.017-.014.039-.023.056-.037a12.109,12.109,0,0,1,6.614-1.5c.243,0,.485,0,.74.012q1.092.036,2.184,0c5.085-.158,7.33,1.48,7.39,1.529.012.012.024.024.036.024s.022.012.032.02c.027.019.054.035.082.051s.073.042.1.062c1.044.8,2,3.495,2.488,6.225a.206.206,0,0,0,.012.085c.012.085.024.146.036.231v.012a20.4,20.4,0,0,1,.279,2.973,1.765,1.765,0,0,1-.449,1.323Zm2.156-6.7c-.581-2.428-1.537-4.853-3.008-6.006-.913-2.357-6.791-18.519,2-22.6L51.2,23.9l1.62,5.875c1.072,3.856,1.952,7.076,1.952,7.077.031.129,2.316,10.289-3.536,16.11Zm16.3-27.145c-2.387,2.356-6.745,3.209-12.6,2.517l-1.5-5.455c1.49-.669,3.167-1.392,4.861-2.06l.035-.014c4.319-1.7,8.743-3.028,10.47-2.071a1.313,1.313,0,0,1,.663,1.129,7.016,7.016,0,0,1-1.926,5.954Z" transform="translate(-3.989 -7.586)" fill="#496c58"/>
      <path id="Trazado_898129" data-name="Trazado 898129" d="M41.374,28.77a1.784,1.784,0,1,0,1.784,1.784A1.784,1.784,0,0,0,41.374,28.77Z" transform="translate(3.613 -3.063)" fill="#496c58"/>
      <path id="Trazado_898130" data-name="Trazado 898130" d="M23.254,32.338a1.784,1.784,0,1,0-1.784-1.784A1.784,1.784,0,0,0,23.254,32.338Z" transform="translate(-0.256 -3.063)" fill="#496c58"/>
      <path id="Trazado_898131" data-name="Trazado 898131" d="M28.254,43.49a2.359,2.359,0,1,0,1.675.691,2.36,2.36,0,0,0-1.675-.691Z" transform="translate(0.69 0.08)" fill="#496c58"/>
      <path id="Trazado_898132" data-name="Trazado 898132" d="M36.576,43.49a2.36,2.36,0,1,0,2.354,2.366,2.36,2.36,0,0,0-2.354-2.366Z" transform="translate(2.464 0.08)" fill="#496c58"/>
    </g>
  </g>
</svg>
