<svg xmlns="http://www.w3.org/2000/svg" xmlns:xlink="http://www.w3.org/1999/xlink" width="44" height="44" viewBox="0 0 44 44">
  <defs>
    <filter id="Elipse_11753" x="0" y="0" width="44" height="44" filterUnits="userSpaceOnUse">
      <feOffset dy="3" input="SourceAlpha"/>
      <feGaussianBlur stdDeviation="3" result="blur"/>
      <feFlood flood-opacity="0.161"/>
      <feComposite operator="in" in2="blur"/>
      <feComposite in="SourceGraphic"/>
    </filter>
  </defs>
  <g id="Grupo_1108382" data-name="Grupo 1108382" transform="translate(-351.051 -3586)">
    <g transform="matrix(1, 0, 0, 1, 351.05, 3586)" filter="url(#Elipse_11753)">
      <circle id="Elipse_11753-2" data-name="Elipse 11753" cx="13" cy="13" r="13" transform="translate(9 6)" fill="#f1de5f"/>
    </g>
    <path id="Trazado_903405" data-name="Trazado 903405" d="M9.782,0H.888V-1.934L4.825-6.258a8.5,8.5,0,0,0,1.16-1.6,2.72,2.72,0,0,0,.369-1.222,1.9,1.9,0,0,0-.334-1.182A1.266,1.266,0,0,0,4.948-10.7a1.225,1.225,0,0,0-1.077.567,2.534,2.534,0,0,0-.382,1.446H.58L.563-8.736a3.984,3.984,0,0,1,1.169-3.01,4.306,4.306,0,0,1,3.217-1.235,4.671,4.671,0,0,1,3.243,1.033A3.639,3.639,0,0,1,9.334-9.105,3.746,3.746,0,0,1,8.7-6.957a26.843,26.843,0,0,1-2.32,2.764L4.825-2.329l.018.044H9.782Z" transform="translate(368.051 3611)" fill="#12263f"/>
  </g>
</svg>
