<svg xmlns="http://www.w3.org/2000/svg" width="80" height="80" viewBox="0 0 80 80">
  <g id="Grupo_1108196" data-name="Grupo 1108196" transform="translate(-180.051 -4916)">
    <g id="Elipse_11752" data-name="Elipse 11752" transform="translate(180.051 4916)" fill="#f9f1be" stroke="#fff" stroke-width="5">
      <circle cx="40" cy="40" r="40" stroke="none"/>
      <circle cx="40" cy="40" r="37.5" fill="none"/>
    </g>
    <g id="Grupo_1108195" data-name="Grupo 1108195" transform="translate(196.827 4931.229)">
      <path id="Trazado_903170" data-name="Trazado 903170" d="M32.124,33.441a.732.732,0,0,0-.732.732v3.188h-4.6v-2.3a.732.732,0,0,0-1.464,0v6.653a.733.733,0,0,1-.732.732H17.763a2.7,2.7,0,0,0-4.229,0H8.261a.733.733,0,0,1-.732-.732V35.061a.732.732,0,1,0-1.464,0v2.3h-4.6V31.232a3.874,3.874,0,0,1,3.3-3.815l7.14-.848a4.525,4.525,0,0,0,9.049,0l7.14.848a3.864,3.864,0,0,1,3.293,3.606.732.732,0,0,0,.73.693h.04a.732.732,0,0,0,.692-.77,5.332,5.332,0,0,0-4.556-4.977l-.018,0-6.49-.77A8.06,8.06,0,0,0,24.5,19.183h.636a2.634,2.634,0,0,0,2.631-2.631V15.129a2.634,2.634,0,0,0-1.516-2.383V8.313a3.771,3.771,0,0,0-3.032-3.693V3.764A3.768,3.768,0,0,0,19.46,0H16.3A9.708,9.708,0,0,0,6.6,9.7v3.05a2.634,2.634,0,0,0-1.516,2.383v1.423a2.634,2.634,0,0,0,2.631,2.631h.636a8.06,8.06,0,0,0,2.721,6.011l-6.49.77-.018,0A5.346,5.346,0,0,0,0,31.232V43.194a6.792,6.792,0,0,0,6.784,6.784h5.251a.732.732,0,0,0,0-1.464H6.784a5.326,5.326,0,0,1-5.32-5.32V38.826h4.6v2.888a2.2,2.2,0,0,0,2.2,2.2h5.626a.732.732,0,0,0,.594-.3,1.279,1.279,0,0,1,2.331,0,.732.732,0,0,0,.6.307h1.519a2.3,2.3,0,0,1-.015,4.6H15.226a.732.732,0,0,0,0,1.464H26.071a6.792,6.792,0,0,0,6.784-6.784v-9.02a.732.732,0,0,0-.732-.732Zm-15.7-3.878a3.064,3.064,0,0,1-3.059-2.934,8.114,8.114,0,0,0,6.116,0,3.087,3.087,0,0,1-3.058,2.934Zm9.88-13.011a1.168,1.168,0,0,1-1.167,1.167h-.636V13.966h.729a1.168,1.168,0,0,1,1.073,1.163v1.423ZM16.3,1.464H19.46a2.3,2.3,0,0,1,2.3,2.3V5.28a.732.732,0,0,0,.732.732,2.3,2.3,0,0,1,2.3,2.3V12.5H23.224V10.831a2.228,2.228,0,0,0-3.118-1.994l-3.678,1.7-3.678-1.7a2.228,2.228,0,0,0-3.118,1.994V12.5H8.064V9.7A8.242,8.242,0,0,1,16.3,1.464ZM6.548,16.552V15.129a1.168,1.168,0,0,1,1.073-1.163H8.35v3.752H7.714a1.168,1.168,0,0,1-1.166-1.167Zm3.267,2.6v-5.19h.549a.732.732,0,0,0,.732-.732v-2.4a.732.732,0,0,1,1.039-.665l3.986,1.843a.732.732,0,0,0,.614,0l3.986-1.843a.732.732,0,0,1,1.039.665v2.4a.732.732,0,0,0,.732.732h.549v5.19a6.613,6.613,0,1,1-13.226,0ZM31.391,43.194a5.326,5.326,0,0,1-5.32,5.32H21.894a3.764,3.764,0,0,0,0-4.6h2.7a2.2,2.2,0,0,0,2.2-2.2V38.826h4.6Z" fill="#496c58"/>
      <path id="Trazado_903171" data-name="Trazado 903171" d="M189.01,158.257a.74.74,0,0,0,1,.28.732.732,0,0,0,.28-1l-.349-.622h.687a.732.732,0,0,0,0-1.464h-1.937c-.713,0-.913.517-.639,1.09Z" transform="translate(-169.586 -140.28)" fill="#496c58"/>
      <path id="Trazado_903172" data-name="Trazado 903172" d="M115.748,156.918l-.349.622a.732.732,0,0,0,.28,1,.74.74,0,0,0,1-.28l.961-1.713a.694.694,0,0,0-.638-1.09h-1.937a.732.732,0,1,0,0,1.464Z" transform="translate(-103.169 -140.28)" fill="#496c58"/>
      <path id="Trazado_903173" data-name="Trazado 903173" d="M142.718,210.484a.732.732,0,0,0,.732-.732,1.1,1.1,0,1,1,2.208,0,.732.732,0,0,0,1.464,0,2.568,2.568,0,1,0-5.136,0A.732.732,0,0,0,142.718,210.484Z" transform="translate(-128.126 -186.96)" fill="#496c58"/>
      <path id="Trazado_903174" data-name="Trazado 903174" d="M67.622,296.39l4.422,3.211a.732.732,0,1,0,.86-1.185l-3.316-2.408,1.542-.572a.686.686,0,0,0,.247-1.22l-4.935-4.638a.732.732,0,0,0-1,1.067l4.074,3.829-1.717.637a.72.72,0,0,0-.176,1.279Z" transform="translate(-58.845 -261.133)" fill="#496c58"/>
      <path id="Trazado_903175" data-name="Trazado 903175" d="M367.563,376.64l-4.976,2.549-.022-1.831a.692.692,0,0,0-1.145-.6l-4.511,3.085a.732.732,0,0,0,.826,1.209l3.382-2.313.02,1.645c.031.648.462.932,1.066.643l6.027-3.088a.732.732,0,0,0-.668-1.3Z" transform="translate(-321.782 -339.802)" fill="#496c58"/>
      <path id="Trazado_903176" data-name="Trazado 903176" d="M368.232,441.889,362.2,438.8c-.563-.322-1.051-.054-1.066.643l-.02,1.645-3.382-2.313a.732.732,0,0,0-.826,1.209l4.511,3.085c.628.38,1.107.071,1.145-.6l.022-1.831,4.976,2.549a.743.743,0,0,0,.985-.318A.732.732,0,0,0,368.232,441.889Z" transform="translate(-321.783 -395.83)" fill="#496c58"/>
      <path id="Trazado_903177" data-name="Trazado 903177" d="M197.255,289.612a.732.732,0,0,0-1.035-.032l-4.935,4.638c-.37.5-.36,1.032.247,1.22l1.542.572-3.316,2.408a.732.732,0,1,0,.86,1.185l4.422-3.211a.683.683,0,0,0-.176-1.279l-1.717-.637,4.074-3.829a.732.732,0,0,0,.032-1.035Z" transform="translate(-170.964 -261.134)" fill="#496c58"/>
    </g>
  </g>
</svg>
