<svg xmlns="http://www.w3.org/2000/svg" width="80" height="80" viewBox="0 0 80 80">
  <g id="Grupo_1108197" data-name="Grupo 1108197" transform="translate(-180.051 -4916)">
    <g id="Elipse_11752" data-name="Elipse 11752" transform="translate(180.051 4916)" fill="#f9f1be" stroke="#fff" stroke-width="5">
      <circle cx="40" cy="40" r="40" stroke="none"/>
      <circle cx="40" cy="40" r="37.5" fill="none"/>
    </g>
    <g id="Grupo_1108199" data-name="Grupo 1108199" transform="translate(151.145 4921.394)">
      <path id="Trazado_903178" data-name="Trazado 903178" d="M104.129,42.762H98.237a1.72,1.72,0,0,1-1.718-1.718v-1.92a9.491,9.491,0,0,0,2.635-2.358,9.321,9.321,0,0,0,1.919-5.417,2.71,2.71,0,0,0,2.233-2.716,2.813,2.813,0,0,0-.426-1.5V17.312A6.319,6.319,0,0,0,96.569,11H86.518a1.86,1.86,0,0,0-1.858,1.858.9.9,0,0,1-.895.895,3.344,3.344,0,0,0-3.34,3.34V27.164a2.759,2.759,0,0,0,1.807,4.182,9.479,9.479,0,0,0,4.854,7.946v1.752a1.72,1.72,0,0,1-1.718,1.718H79.178a6.33,6.33,0,0,0-6.322,6.322v8.647a.482.482,0,0,0,.482.482h36.632a.482.482,0,0,0,.482-.482V49.085a6.33,6.33,0,0,0-6.322-6.322Zm-6.508.891a6.24,6.24,0,0,1-2.7,3.451,2.813,2.813,0,0,1-.287-1.244V40a9.428,9.428,0,0,0,.92-.363v1.411a2.686,2.686,0,0,0,2.064,2.609Zm.752,9.156a1.878,1.878,0,0,1-3.642.864.615.615,0,0,0-1.2.175,1.878,1.878,0,0,1-3.754,0,.615.615,0,0,0-1.2-.175,1.878,1.878,0,0,1-3.642-.861.72.72,0,0,0-.161-.569.708.708,0,0,0-.525-.251.722.722,0,0,0-.419.126,1.878,1.878,0,1,1-.042-3.124,3.857,3.857,0,0,0,2.193.626,3.758,3.758,0,0,0,3.687-3.762V32.465a3.764,3.764,0,0,1,4,.026V45.86a3.742,3.742,0,0,0,3.668,3.762,3.812,3.812,0,0,0,2.175-.627,1.879,1.879,0,1,1-.044,3.123.7.7,0,0,0-.94.125.716.716,0,0,0-.159.567Zm2.708-22.45V26.907a1.811,1.811,0,0,1,0,3.452Zm-18.854-.005a1.8,1.8,0,0,1,0-3.44Zm0-7.762v3.334a2.707,2.707,0,0,0-.838.313V17.093a2.38,2.38,0,0,1,2.377-2.377,1.86,1.86,0,0,0,1.858-1.858.9.9,0,0,1,.895-.895h10.05a5.355,5.355,0,0,1,5.349,5.349v8.9a2.67,2.67,0,0,0-.838-.3v-5.5a.482.482,0,0,0-.623-.461,12.753,12.753,0,0,1-6.47.331,15.685,15.685,0,0,1-6.125-2.947.482.482,0,0,0-.29-.1,5.351,5.351,0,0,0-5.345,5.345Zm.964,8.471V22.591a4.387,4.387,0,0,1,4.225-4.379c4.073,3.029,8.342,3.984,12.7,2.845v10a8.5,8.5,0,0,1-5.48,7.913V35.414a2.37,2.37,0,0,0,.754-1.687c0-1.537-1.677-2.788-3.737-2.788s-3.737,1.251-3.737,2.788a2.378,2.378,0,0,0,.792,1.7v3.56a8.506,8.506,0,0,1-5.518-7.922Zm4.86,9.982V39.759q.323.134.658.246v5.854a2.786,2.786,0,0,1-.3,1.261A6.236,6.236,0,0,1,85.7,43.7a2.685,2.685,0,0,0,2.349-2.66Zm21.438,16.205h-4.225V52.976a.482.482,0,0,0-.964,0v4.273H79.007V52.976a.482.482,0,0,0-.964,0v4.273H73.819V49.085a5.365,5.365,0,0,1,5.359-5.359H84.7a7.194,7.194,0,0,0,3.13,4.169,2.822,2.822,0,0,1-1.869.764,2.915,2.915,0,0,1-1.645-.472,2.842,2.842,0,1,0-.36,4.968,2.842,2.842,0,0,0,5.067,1.7,2.846,2.846,0,0,0,5.267,0,2.843,2.843,0,0,0,5.067-1.7,2.842,2.842,0,1,0-.364-4.971,2.854,2.854,0,0,1-1.627.473,2.791,2.791,0,0,1-1.871-.774,7.2,7.2,0,0,0,3.113-4.158h5.522a5.365,5.365,0,0,1,5.359,5.359Z" transform="translate(-21.596)" fill="#496c58" stroke="#496c58" stroke-width="0.3"/>
      <path id="Trazado_903181" data-name="Trazado 903181" d="M209.616,163.756a.482.482,0,0,0-.482-.482H205.8a.482.482,0,0,0,0,.964h3.332A.482.482,0,0,0,209.616,163.756Z" transform="translate(-141.299 -137.602)" fill="#496c58"/>
      <path id="Trazado_903182" data-name="Trazado 903182" d="M286.482,164.238h3.332a.482.482,0,1,0,0-.964h-3.332a.482.482,0,0,0,0,.964Z" transform="translate(-214.204 -137.602)" fill="#496c58"/>
      <g id="Grupo_1108198" data-name="Grupo 1108198" transform="translate(69.575 38.304)">
        <path id="Trazado_903183" data-name="Trazado 903183" d="M263.432,358.692a.482.482,0,0,0-.482.482v5.186a.482.482,0,1,0,.964,0v-5.186A.482.482,0,0,0,263.432,358.692Z" transform="translate(-262.95 -352.495)" fill="#496c58"/>
        <path id="Trazado_903184" data-name="Trazado 903184" d="M263.432,294.379a.482.482,0,0,0-.482.482V297.6a.482.482,0,1,0,.964,0v-2.743A.482.482,0,0,0,263.432,294.379Z" transform="translate(-262.95 -294.379)" fill="#496c58"/>
      </g>
    </g>
  </g>
</svg>
