<svg xmlns="http://www.w3.org/2000/svg" width="85" height="84" viewBox="0 0 85 84">
  <g id="Grupo_1108208" data-name="Grupo 1108208" transform="translate(-729.051 -722)">
    <g id="Grupo_1108208-2" data-name="Grupo 1108208" transform="translate(-80.949 -27)">
      <rect id="Rectángulo_402617" data-name="Rectángulo 402617" width="85" height="84" transform="translate(810 749)" fill="#94dab2"/>
    </g>
    <g id="Grupo_1108210" data-name="Grupo 1108210" transform="translate(736.076 733.336)">
      <path id="Trazado_903197" data-name="Trazado 903197" d="M53.8,86.271a11.267,11.267,0,0,1-8.652-4.092c-1.416-1.7-2.038-4.044-2.758-6.756-1-3.772-2.248-8.468-6.157-12.79-3.876-4.285-8.668-6.152-12.9-7.8-6.243-2.43-8.776-3.638-8.776-9.172a5.363,5.363,0,0,1,1.119-3.427c-4.957,3.272-8.131,7.4-8.055,11.929.2,11.8,12.427,9.623,19.723,17.69,7.715,8.531,1.661,16.83,17.291,22.9C52.845,97.94,66.6,93.723,73.5,76.691c-.17.215-10.589,9.8-19.7,9.579Zm0,0" transform="translate(-6.563 -35.952)" fill="#ea3942"/>
      <path id="Trazado_903198" data-name="Trazado 903198" d="M96.895,34.929c0,14.266-12,28.946-27.5,25.832C52.914,57.447,59.37,47.033,51.655,38.5c-7.3-8.068-20.31-4.986-20.31-17.689C31.345,9.3,51.268,6.229,69.4,9.1c15,2.373,27.5,11.565,27.5,25.831Zm0,0" transform="translate(-27.001 -6.54)" fill="#f3e8d7"/>
      <path id="Trazado_903199" data-name="Trazado 903199" d="M251.664,65.477a22,22,0,0,1,4.193,13.077c0,14.266-12,28.946-27.5,25.831a24.29,24.29,0,0,1-5.737-1.814c1.543,3.392,4.37,6.18,11.545,7.622,15.494,3.114,27.5-11.565,27.5-25.832,0-7.988-3.919-14.385-10-18.885Zm0,0" transform="translate(-191.772 -55.973)" fill="#e5d6c1"/>
      <path id="Trazado_903200" data-name="Trazado 903200" d="M104.034,86.48a14.955,14.955,0,0,1-6.761-1.237,9.053,9.053,0,0,1-3.726-2.83A13.917,13.917,0,0,1,91.7,77.641a30.891,30.891,0,0,0-4.123-10.085c-3.084-4.424-8.012-7.233-13.074-9.093a21.182,21.182,0,0,1-5.176-2.334,5.643,5.643,0,0,1-2.6-4.785c.2-2.432,2.484-4.137,4.712-5.132,6.138-2.742,13.24-3.142,19.864-2.643,6.753.508,13.97,1.745,19.966,5.03,5.922,3.244,10.317,8.847,10.908,15.667a21.986,21.986,0,0,1-7.746,18.223,17.817,17.817,0,0,1-10.4,3.99Zm0,0" transform="translate(-57.468 -36.943)" fill="#fc4e51"/>
      <path id="Trazado_903201" data-name="Trazado 903201" d="M281.064,104.25A19.668,19.668,0,0,0,272.141,89.8a18.253,18.253,0,0,1,3.03,8.557,21.986,21.986,0,0,1-7.746,18.223,17.82,17.82,0,0,1-10.4,3.99,15.156,15.156,0,0,1-5.869-.877,9.4,9.4,0,0,0,1.276,2.7,9.053,9.053,0,0,0,3.726,2.83,14.952,14.952,0,0,0,6.761,1.237,17.819,17.819,0,0,0,10.4-3.99,21.984,21.984,0,0,0,7.746-18.223Zm0,0" transform="translate(-216.356 -76.927)" fill="#ea3942"/>
      <path id="Trazado_903202" data-name="Trazado 903202" d="M186.45,85.147a4.334,4.334,0,1,1-4.334-4.334A4.334,4.334,0,0,1,186.45,85.147Zm0,0" transform="translate(-153.145 -69.184)" fill="#f3e8d7"/>
      <path id="Trazado_903203" data-name="Trazado 903203" d="M62.465,10.219C57.472,5.847,50.4,2.755,42.559,1.515a76.685,76.685,0,0,0-20.234-.6C15.6,1.7,10.341,3.571,7.117,6.326c-.171.146-.335.294-.494.444C2.223,10.2-.067,14.165,0,18.23a11,11,0,0,0,3.377,8.32c1.939,1.806,4.469,2.918,7.148,4.095,3.325,1.461,6.764,2.971,9.471,5.966,2.771,3.064,3.674,6.137,4.546,9.108a21.369,21.369,0,0,0,3.352,7.5c2.073,2.69,5.185,4.776,9.793,6.565a16.177,16.177,0,0,0,5.856,1.043,21.691,21.691,0,0,0,9.941-2.539C57.8,56.032,63.8,51.239,67.878,41.225a29.125,29.125,0,0,0,3.072-12.836,23.655,23.655,0,0,0-8.484-18.17Zm-9.958,46.2c-4.713,2.463-9.966,2.986-14.054,1.4-9.2-3.573-10.445-7.8-11.883-12.692-.9-3.05-1.912-6.507-5.007-9.929-3.011-3.33-6.824-5-10.188-6.483-5.114-2.247-9.153-4.021-9.263-10.518a9.242,9.242,0,0,1,1.2-4.6c-.014.222-.023.446-.023.673,0,3.8,1.126,6.67,3.442,8.76,2.029,1.831,4.68,2.863,7.486,3.956,3.428,1.334,6.971,2.714,9.655,5.682s3.56,6.238,4.4,9.389c.757,2.851,1.472,5.544,3.422,7.888,2.179,2.62,5.515,4.307,10.5,5.309a21.972,21.972,0,0,0,4.333.435,21.681,21.681,0,0,0,11.767-3.506,24.737,24.737,0,0,1-5.78,4.232ZM66.051,40.164a1.118,1.118,0,0,0-.094.179c-.012.03-.025.059-.037.089a26.086,26.086,0,0,1-6.7,8.465,19.83,19.83,0,0,1-12.613,4.7,20.347,20.347,0,0,1-4.01-.408c-9.716-1.953-10.854-6.24-12.3-11.668-.86-3.236-1.833-6.9-4.871-10.264-3.019-3.338-6.97-4.877-10.456-6.234C9.628,22.935,5.4,21.289,5.4,14.272a8.1,8.1,0,0,1,3.089-6.34C12.524,4.484,20.476,2.6,29.9,2.6a79.447,79.447,0,0,1,12.331,1c7.454,1.179,14.147,4.094,18.844,8.207a21.6,21.6,0,0,1,7.764,16.582,26.986,26.986,0,0,1-2.787,11.776Zm0,0" transform="translate(0 0)"/>
      <path id="Trazado_903204" data-name="Trazado 903204" d="M115.7,59.916a1.055,1.055,0,0,0-1.141.964,21.367,21.367,0,0,1-6.774,13.711c-1.381-1.1-1.923-2.861-2.756-5.579a54.22,54.22,0,0,0-3.238-8.525c-1.6-3.286-4.584-6.072-7.669-8.267,2.332-1.36,7.968-3.919,16.853-3.52a17.615,17.615,0,0,1,3.374,7.508,1.056,1.056,0,0,0,1.037.866,1.091,1.091,0,0,0,.191-.017,1.056,1.056,0,0,0,.849-1.229,19.8,19.8,0,0,0-4.056-8.772c-.015-.021-.031-.041-.048-.061a23.641,23.641,0,0,0-7.111-5.9c-5.229-2.865-11.709-4.5-20.395-5.158-8.209-.619-14.873.276-20.373,2.732-2.566,1.146-4.287,2.723-4.991,4.535l-.016.043a5.236,5.236,0,0,0-.326,1.432,6.663,6.663,0,0,0,3.04,5.729A14.858,14.858,0,0,0,65.5,52.117a1.055,1.055,0,0,0,.756-1.971,12.713,12.713,0,0,1-2.872-1.451,4.643,4.643,0,0,1-2.166-3.84c.006-.07.015-.145.028-.222a67.236,67.236,0,0,1,13.249,1.419c0,.092-.007.185-.007.278A5.388,5.388,0,0,0,84.437,49.2c3.517,1.561,12.433,6.013,15.46,12.212a52.44,52.44,0,0,1,3.116,8.217c.833,2.718,1.478,4.822,3.081,6.3a16.9,16.9,0,0,1-8.666,2.924A13.8,13.8,0,0,1,91.144,77.7a7.97,7.97,0,0,1-3.3-2.483,12.3,12.3,0,0,1-1.62-4.19l-.059-.23a31.871,31.871,0,0,0-4.279-10.424c-2.4-3.435-6.1-6.275-11-8.442a1.056,1.056,0,0,0-.853,1.931c4.544,2.008,7.949,4.6,10.12,7.718a30,30,0,0,1,3.967,9.745l.059.228a14.035,14.035,0,0,0,1.952,4.9,10.024,10.024,0,0,0,4.151,3.176,15.726,15.726,0,0,0,6.466,1.345q.382,0,.77-.017a18.773,18.773,0,0,0,10.986-4.2l.008-.007.025-.02a23.119,23.119,0,0,0,8.127-15.674,1.055,1.055,0,0,0-.963-1.141ZM83.146,46.569a2.987,2.987,0,0,1-.615,1.682A3.276,3.276,0,0,1,76.6,46.365a3.792,3.792,0,0,1,.471-1.728,3.278,3.278,0,0,1,6.085,1.693c0,.081,0,.16-.01.239Zm2.047.65A5.389,5.389,0,0,0,75.018,44a72.034,72.034,0,0,0-12.623-1.483A9.189,9.189,0,0,1,65.308,40.6c5.172-2.31,11.5-3.145,19.353-2.554,8.374.631,14.583,2.189,19.538,4.9a22.146,22.146,0,0,1,4.872,3.594c-9.477,0-15.065,3.158-16.874,4.381a53.658,53.658,0,0,0-7-3.706Zm0,0" transform="translate(-50.907 -30.367)"/>
    </g>
  </g>
</svg>
