<svg xmlns="http://www.w3.org/2000/svg" xmlns:xlink="http://www.w3.org/1999/xlink" width="210" height="130.294" viewBox="0 0 210 130.294">
  <defs>
    <filter id="Trazado_877977" x="40.427" y="7.707" width="129.146" height="120.881" filterUnits="userSpaceOnUse">
      <feOffset dy="3" input="SourceAlpha"/>
      <feGaussianBlur stdDeviation="3" result="blur"/>
      <feFlood flood-opacity="0.161"/>
      <feComposite operator="in" in2="blur"/>
      <feComposite in="SourceGraphic"/>
    </filter>
  </defs>
  <g id="Grupo_1107994" data-name="Grupo 1107994" transform="translate(-495 -2319)">
    <rect id="Rectángulo_402634" data-name="Rectángulo 402634" width="210" height="130.294" transform="translate(495 2319)" fill="#fae0da"/>
    <g transform="matrix(1, 0, 0, 1, 495, 2319)" filter="url(#Trazado_877977)">
      <path id="Trazado_877977-2" data-name="Trazado 877977" d="M108.094,76.242c-4.42,4.4-11.482,5.534-18.264,2.718a13.476,13.476,0,0,1-8.252-8.977c-1.381-4.332,1.1-7.722,5.593-7.16,3.557.445,6.038-.014,8.815-2.66,4-3.812,10.037-3.524,12.9-.305C112.812,64.268,112.442,71.914,108.094,76.242ZM64.454,47.389a10.033,10.033,0,0,1-6.142-6.682c-1.028-3.225.819-5.748,4.164-5.33,2.648.331,4.494-.011,6.561-1.98,2.978-2.837,7.471-2.623,9.6-.227,2.921,3.283,2.646,8.974-.591,12.2C74.759,48.64,69.5,49.484,64.454,47.389Zm-3.859,40.5c2.921,3.283,2.646,8.974-.591,12.2-3.29,3.275-8.547,4.119-13.6,2.023a10.032,10.032,0,0,1-6.142-6.682c-1.028-3.225.818-5.748,4.163-5.33,2.648.331,4.494-.01,6.561-1.98C53.97,85.276,58.462,85.49,60.595,87.886ZM44.51,8.973c-2.264,1.415-3.482,2.845-3.845,5.677-.523,4.081-4.146,6.751-7.312,6.238-4.337-.7-7.711-5.289-7.23-9.83C26.613,6.441,30.161,2.468,35.4.907a10.03,10.03,0,0,1,8.981,1.3C47.213,4.063,47.371,7.186,44.51,8.973ZM32.351,50.055c4.519,5.078,4.093,13.884-.914,18.867-5.09,5.067-13.222,6.372-21.033,3.13A15.52,15.52,0,0,1,.9,61.715c-1.59-4.989,1.266-8.893,6.441-8.245,4.1.512,6.953-.017,10.151-3.063C22.1,46.017,29.052,46.348,32.351,50.055Z" transform="translate(48.97 13.34)" fill="#fcefec" fill-rule="evenodd"/>
    </g>
    <path id="Trazado_898029" data-name="Trazado 898029" d="M423.6,254.658c-.909,4.5-1.664,8.989-4.385,13.114a2.475,2.475,0,0,1-.893,1.676c-.4,1.79-1.514,3.545-1.869,5.385.692,3.8-1.037,7.928-.212,11.754a2.238,2.238,0,0,1,.235,1.276c.895,2.538.426,5.333,1.164,7.876.524,1.015.838,2.642-.867,3.046a9.258,9.258,0,0,1-1.787-.124,17.183,17.183,0,0,0-2.628.551c-.9.171-1.979-.04-2.167-.843a2.461,2.461,0,0,1,.23-1.307c1.084-3.089,1.031-6.288.966-9.409a17.211,17.211,0,0,0-.515-4.632,28.8,28.8,0,0,1-1.052-3.126,11.139,11.139,0,0,1-.023-2.869c.264-3.315.588-6.695-.178-9.817.107,1.841.072,4.01-1.49,5.333a7.267,7.267,0,0,1-2.332,1.163l-4.973,1.769a.7.7,0,0,1-.452.055.512.512,0,0,1-.256-.355q-.611-1.8-1.222-3.6c.847,2.965.275,6.267.379,9.42a42.287,42.287,0,0,0,.739,5.861,48.779,48.779,0,0,0,2.212,9.172,11.863,11.863,0,0,1,.912,2.932c-2.629.262-5.212.869-7.868,1.169-.658-.7.071-1.567-.012-2.342a.778.778,0,0,1,.141-.116,1.3,1.3,0,0,1,.27-.828c.071-.44.153-.869.235-1.31-.595-.292-.469-1.151-.317-1.731,1.123-6.079-1.466-11.614-3.433-16.9-.917-.1-.772-1.54-1.093-2.235-3.881,4.383-1.09-2.144-5.537-4.789-.153-.059-.294-.109-.447-.168-2.379,6.095-3.739,12.715-1.834,18.647,1.157,2.546.037,5.876.917,8.568-.007.675.7,1.361-.235,2.018-.459.011-.917.032-1.376.042-.964-1.08-1.827.468-3,.413a3.089,3.089,0,0,1-1.623-.691.969.969,0,0,1-.776-.692c-.353-.443-.066-1.729.282-2.245,1.3-1.834.035-3.551,1.093-5.37a.353.353,0,0,1,.059-.184c.316-5.281-2.35-9.776-2.716-14.832-1.027.832-1.488,1.957-2.728,2.57.9-2.6,1.4-5.159,2.422-7.6a.951.951,0,0,1,.235-.658.239.239,0,0,1,.023-.18,2.036,2.036,0,0,1-.224-1.311.1.1,0,0,1-.012-.142,67.749,67.749,0,0,1-1.634-10.285,58.677,58.677,0,0,1-.223-11.548c-.423-.314-.035-.681.035-1.032a1.825,1.825,0,0,1,.224-1.342c.518-2.245,3.867-7.119,5.961-8.451,1.822-1.16,10.169.041,10.414,2.369-.184-1.746-1.877-2.852-3.622-3.327s-3.662-.523-5.334-1.154c-2.51-.947-2.984-.873-3.8-3.5a4.816,4.816,0,0,1,.082-3.525,35.982,35.982,0,0,0,3.28-2.562c.455-.387.873-.561,1.191-1.118.246-.43.137-1,.343-1.366a8.2,8.2,0,0,1-1.06,1.461,7.019,7.019,0,0,0-.509-2.217c-1.979.408-4.02.832-5.82.062-1.756-.752-3.7-1.269-5.407-2.1a2.54,2.54,0,0,1-1.644-2.36,16.4,16.4,0,0,0,6.262-1.779,45.8,45.8,0,0,1,6.022-.965,3.034,3.034,0,0,0-.253,2.7,6.674,6.674,0,0,1,2.856-4.27,21.034,21.034,0,0,0-3.4-1.436c-.456-.185-2.725-1.739-3.024-1.664-.866.219-4.063-4.707-2.539-4.063.165.1.329.215.493.317,5.8,3.437,12.154,1.551,18.9.607.306-.357.811-.263,1.152-.557,2.036-.564,4.246-1.489,6.23-1.4,1.634-.151,2.9-1.275,4.362-1.869a17.335,17.335,0,0,0,1.376-1.723c-.032-.7.645-1.23.517-1.93.008-1.392,1.343-1.686,1.4-.256.03.753.668,1.509.709,2.343a5.936,5.936,0,0,1-.576,2.793,10.788,10.788,0,0,1-4.492,4.5,3.469,3.469,0,0,1-3.381.08c.053.551.64.842,1.186,1s1.164.294,1.441.756c.068.113.112.241.19.348a1.151,1.151,0,0,0,1.232.246c1.393-.394,2.067-2.107,3.324-2.825a9.832,9.832,0,0,1,2.816-1.051,11.875,11.875,0,0,1,5.811.422,5.431,5.431,0,0,0,3.649.205c-.173.069-.742,1.186-.96,1.4a8.381,8.381,0,0,1-1.48.966,34.132,34.132,0,0,0-2.954,2.637c-2.011,1.731-4.667,3.411-7.246,2.675-.493-.085-.823.231-1.152.525.145,1.523,1.514,1.6,2.575,2.29,3.673,1.361,5.614,4.464,8.435,6.843,3.174,2.675,4.076,7.494,4.226,11.622C423.611,241.363,423.74,248.2,423.6,254.658Z" transform="translate(204.15 2136.15)" fill="#f5b2a4"/>
  </g>
</svg>
