<svg xmlns="http://www.w3.org/2000/svg" xmlns:xlink="http://www.w3.org/1999/xlink" width="210" height="130.294" viewBox="0 0 210 130.294">
  <defs>
    <filter id="Trazado_877977" x="40.427" y="7.707" width="129.146" height="120.881" filterUnits="userSpaceOnUse">
      <feOffset dy="3" input="SourceAlpha"/>
      <feGaussianBlur stdDeviation="3" result="blur"/>
      <feFlood flood-opacity="0.161"/>
      <feComposite operator="in" in2="blur"/>
      <feComposite in="SourceGraphic"/>
    </filter>
  </defs>
  <g id="Grupo_1107995" data-name="Grupo 1107995" transform="translate(-180.051 -2675)">
    <rect id="Rectángulo_402636" data-name="Rectángulo 402636" width="210" height="130.294" transform="translate(180.051 2675)" fill="#fae0da"/>
    <g transform="matrix(1, 0, 0, 1, 180.05, 2675)" filter="url(#Trazado_877977)">
      <path id="Trazado_877977-2" data-name="Trazado 877977" d="M108.094,76.242c-4.42,4.4-11.482,5.534-18.264,2.718a13.476,13.476,0,0,1-8.252-8.977c-1.381-4.332,1.1-7.722,5.593-7.16,3.557.445,6.038-.014,8.815-2.66,4-3.812,10.037-3.524,12.9-.305C112.812,64.268,112.442,71.914,108.094,76.242ZM64.454,47.389a10.033,10.033,0,0,1-6.142-6.682c-1.028-3.225.819-5.748,4.164-5.33,2.648.331,4.494-.011,6.561-1.98,2.978-2.837,7.471-2.623,9.6-.227,2.921,3.283,2.646,8.974-.591,12.2C74.759,48.64,69.5,49.484,64.454,47.389Zm-3.859,40.5c2.921,3.283,2.646,8.974-.591,12.2-3.29,3.275-8.547,4.119-13.6,2.023a10.032,10.032,0,0,1-6.142-6.682c-1.028-3.225.818-5.748,4.163-5.33,2.648.331,4.494-.01,6.561-1.98C53.97,85.276,58.462,85.49,60.595,87.886ZM44.51,8.973c-2.264,1.415-3.482,2.845-3.845,5.677-.523,4.081-4.146,6.751-7.312,6.238-4.337-.7-7.711-5.289-7.23-9.83C26.613,6.441,30.161,2.468,35.4.907a10.03,10.03,0,0,1,8.981,1.3C47.213,4.063,47.371,7.186,44.51,8.973ZM32.351,50.055c4.519,5.078,4.093,13.884-.914,18.867-5.09,5.067-13.222,6.372-21.033,3.13A15.52,15.52,0,0,1,.9,61.715c-1.59-4.989,1.266-8.893,6.441-8.245,4.1.512,6.953-.017,10.151-3.063C22.1,46.017,29.052,46.348,32.351,50.055Z" transform="translate(48.96 13.34)" fill="#fcefec" fill-rule="evenodd"/>
    </g>
    <path id="Trazado_898038" data-name="Trazado 898038" d="M475.724,451.815c-.769-1.883-1.406-3.833-2.222-5.717a16.177,16.177,0,0,1-1.059-2.873c-.276-1.246-.215-2.546-.481-3.794a7.5,7.5,0,0,0-3.7-4.954l1.489.422q-.059-2.853-.121-5.708a.592.592,0,0,0-.137-.448.571.571,0,0,0-.452-.073,6.7,6.7,0,0,0-3.51,1.607.948.948,0,0,1-.471.283c-.346.046-.6-.3-.833-.558a5.982,5.982,0,0,0-2.317-1.262c-4.443-1.807-7.369-6.008-10.038-9.994a92.346,92.346,0,0,1-6.248-10.268c-1.006-2.03-1.761-3.5-3.629-4.743-2.052-1.369-4.037-2.75-6.2-3.956a19.53,19.53,0,0,0-8.644-2.411,32.809,32.809,0,0,1-5.288-.261c-3.774-.777-6.855-3.941-10.7-4.157a34.833,34.833,0,0,0-3.984.295c-3.274.192-6.476-.907-9.734-1.281-7.66-.88-15.524,2.245-23.026.466-2.1-.5-4.191-1.375-6.322-1.067a11.071,11.071,0,0,0-2.542.787,101.748,101.748,0,0,0-11.625,5.6,9.871,9.871,0,0,0-2.363,1.689,11.025,11.025,0,0,0-3.949,7.041A54.446,54.446,0,0,0,347.2,415c-.065,2.928-.376,5.846-.684,8.759a13.727,13.727,0,0,1-1.054,4.655c-.982,2-2.9,3.448-3.759,5.506-1.282,3.076.1,6.695-.831,9.893a26.1,26.1,0,0,1,3.664-4.488c1.308-1.28,2.832-2.558,3.2-4.35a20.409,20.409,0,0,0-.086-3.806c.025-1.779.78-3.458,1.156-5.2a30.055,30.055,0,0,0,.325-6.6,67.816,67.816,0,0,1,1.206-13.251q.076,4.235.152,8.469c.047,2.638.846,5.014,1.083,7.645.377,4.2.906,8.94.073,13.107-.779,3.887-5.344,6.679-4.687,10.9a12.937,12.937,0,0,0,.833,2.506,15.082,15.082,0,0,1-.743,12.135c-.315.6-.609,1.475-.039,1.84.276.177.638.125.953.217.777.227,1.013,1.177,1.39,1.894a3.643,3.643,0,0,0,4.885,1.381c-3.24-8.13.939-15.42,3.86-22.826.963-2.441,1.578-5.015,2.64-7.414a11.5,11.5,0,0,1,5.018-5.86c-1.674,1.8-3.41,3.705-3.98,6.093s.519,5.36,2.894,5.982a2.028,2.028,0,0,1,.7.25c.808.583,0,2.027.616,2.811.538.684,1.759.215,2.059-.6a3.527,3.527,0,0,0-.258-2.392q6.742,4.945,13.151,10.32c1.868,1.57,3.86,3.46,3.945,5.9.031.885,0,2.088.863,2.29.417.1.861-.133,1.276-.024.693.183.807,1.09,1.086,1.751a3.391,3.391,0,0,0,2.945,1.835,9.991,9.991,0,0,0,3.574-.637c-.1-1.12-1.394-1.635-2.288-2.317-2.531-1.933-2.181-5.908-3.984-8.534a16.87,16.87,0,0,0-1.672-1.894,20.1,20.1,0,0,1-5.234-11.19c-.98-.1-1.966-.149-2.95-.164a11.116,11.116,0,0,1,4.548-1.456,40,40,0,0,0,22.155.266c1.733-.481,3.431-1.079,5.15-1.607a10.957,10.957,0,0,1,1.516-.376,81.1,81.1,0,0,1-1.852,10.172c-1.024,4.474-2.158,9.164-5.254,12.552a1.471,1.471,0,0,0-.494.86c-.015.358.243.667.317,1.019.135.644-.366,1.267-.34,1.924a1.672,1.672,0,0,0,1.25,1.405,4.9,4.9,0,0,0,1.99.045.848.848,0,0,0,.488-.163.874.874,0,0,0,.208-.508,33.406,33.406,0,0,1,3.409-8.87,27.547,27.547,0,0,1,3.012-5.091c1.251-1.554,2.845-2.843,3.858-4.561.676-1.146,1.07-2.449,1.815-3.551a11.064,11.064,0,0,1,1.913-2.048c2.384,1.563,4.864,4.206,4.6,7.1a9.031,9.031,0,0,0-.286,2.795,6.427,6.427,0,0,0,.785,1.584c1.6,2.894.7,6.464.917,9.766a1.809,1.809,0,0,0,.486,1.319c.337.28.84.306,1.157.608.357.341.36.9.507,1.368a2.909,2.909,0,0,0,2.431,1.817,8.576,8.576,0,0,0,3.164-.343c-.326-1.825-1.841-3.172-2.712-4.809a11.719,11.719,0,0,1-.827-6.982,51.867,51.867,0,0,0,.857-7.085c-.037-3.374-1.284-6.864-.13-10.034q.336,2.67.673,5.342c.18,1.427,2.128.311,2.948.076a11.337,11.337,0,0,0,2.659-1.01c1.463-.857,2.684-2.894,4.455-3.016,1.751-.121,3.285,1.425,5.074,1.251a4.111,4.111,0,0,1,1.757-.1c.777.276,1.064,1.255,1.761,1.695.372.233.829.295,1.211.511,1.362.771,1.02,2.839,1.765,4.216.9,1.656,3.116,1.958,4.656,3.042a12.605,12.605,0,0,1,2.665,3.081,25.264,25.264,0,0,0,6.55,6.209,4.3,4.3,0,0,0,1.978.826,4.668,4.668,0,0,0,1.6-.26,13.829,13.829,0,0,1,2.887-.643,1.311,1.311,0,0,0,.88-.229,1.037,1.037,0,0,0,.24-.482C477.492,455.058,476.491,453.691,475.724,451.815Z" transform="translate(-124.347 2311.199)" fill="#f5b2a4"/>
  </g>
</svg>
