<svg xmlns="http://www.w3.org/2000/svg" width="84.949" height="120" viewBox="0 0 84.949 120">
  <g id="Grupo_1108007" data-name="Grupo 1108007" transform="translate(-285.051 -5960)">
    <rect id="Rectángulo_402693" data-name="Rectángulo 402693" width="84.949" height="120" transform="translate(285.051 5960)" fill="#94dab2"/>
    <g id="Grupo_1108005" data-name="Grupo 1108005" transform="translate(297.051 5991)">
      <ellipse id="Elipse_11709" data-name="Elipse 11709" cx="0.954" cy="0.954" rx="0.954" ry="0.954" transform="translate(24.808 45.581) rotate(-13.3)" fill="#496c58" stroke="#496c58" stroke-width="0.5"/>
      <ellipse id="Elipse_11710" data-name="Elipse 11710" cx="0.954" cy="0.954" rx="0.954" ry="0.954" transform="translate(34.25 45.578) rotate(-13.3)" fill="#496c58" stroke="#496c58" stroke-width="0.5"/>
      <path id="Trazado_898133" data-name="Trazado 898133" d="M149.269,228.137a.9.9,0,1,0,0,1.8,2.017,2.017,0,0,1,2.015,2.015.9.9,0,1,0,1.8,0A3.816,3.816,0,0,0,149.269,228.137Z" transform="translate(-130.593 -202.83)" fill="#496c58" stroke="#496c58" stroke-width="0.5"/>
      <path id="Trazado_898134" data-name="Trazado 898134" d="M329.023,229.036a.9.9,0,0,0-.9-.9,3.816,3.816,0,0,0-3.812,3.812.9.9,0,1,0,1.8,0,2.017,2.017,0,0,1,2.015-2.015A.9.9,0,0,0,329.023,229.036Z" transform="translate(-285.456 -202.83)" fill="#496c58" stroke="#496c58" stroke-width="0.5"/>
      <path id="Trazado_898135" data-name="Trazado 898135" d="M60.692,37.213l-4.359-5.52a3.688,3.688,0,0,0-4.094-1.2c-3.481,1.16-4.255,1.578-5.886,1.847a21.441,21.441,0,0,0,4.419-5.88,26.618,26.618,0,0,0,2.5-7.452,1.772,1.772,0,0,0-3.111-1.443c-.91,1.1-2.082,2.363-3.483,3.751a17.3,17.3,0,0,1-11.359,4.942h-9.3a17.521,17.521,0,0,1-6.563-1.608.9.9,0,0,0-.756,1.63,19.372,19.372,0,0,0,3.177,1.146,7.871,7.871,0,0,0-2.024,1.8l-2.318,2.918c-4.97-3.821-6.924-9.3-7.681-13.362.938,1.128,2.129,2.409,3.543,3.81a18.861,18.861,0,0,0,1.536,1.365.9.9,0,1,0,1.118-1.407,17.08,17.08,0,0,1-1.39-1.235c-1.4-1.389-2.574-2.651-3.483-3.751a1.772,1.772,0,0,0-3.111,1.443,26.616,26.616,0,0,0,2.5,7.452,21.441,21.441,0,0,0,4.419,5.881c-1.633-.269-2.43-.7-5.886-1.847a3.688,3.688,0,0,0-4.094,1.2L.652,37.213A3.026,3.026,0,0,0,1.681,41.8c1.8.752,3.982,2.519,7.851,2.519a11.835,11.835,0,0,0,4.487-.885,15.276,15.276,0,0,0,.637,3.127l4.789,15.171-1.259,4.252a3.633,3.633,0,0,0,4.23,4.587c.18-.038.361-.071.541-.106,1.261,2.235,4.3,3.741,7.715,3.741s6.454-1.506,7.715-3.741c.18.035.361.069.541.106a3.633,3.633,0,0,0,4.23-4.587L41.9,61.732l1.523-4.825a.9.9,0,1,0-1.714-.541l-.889,2.815a5.01,5.01,0,0,0-5.85-1.671h0a11.722,11.722,0,0,1-8.6,0,5.01,5.01,0,0,0-5.85,1.671L16.37,46.02a13.423,13.423,0,0,1,2.293-12.406l2.6-3.269A6.025,6.025,0,0,1,26,28.055H35.34a6.026,6.026,0,0,1,4.743,2.289l2.6,3.269A13.423,13.423,0,0,1,44.974,46.02l-1.988,6.3a.9.9,0,1,0,1.714.541l1.988-6.3a15.274,15.274,0,0,0,.637-3.127,11.83,11.83,0,0,0,4.487.884c3.872,0,6.049-1.769,7.851-2.519a3.026,3.026,0,0,0,1.029-4.586ZM30.672,72.408A7.63,7.63,0,0,1,24.9,70.132a39.79,39.79,0,0,1,11.543,0A7.63,7.63,0,0,1,30.672,72.408ZM25.717,59.183a13.514,13.514,0,0,0,9.909,0,3.214,3.214,0,0,1,4.259,2.081l1.549,5.231A1.836,1.836,0,0,1,39.3,68.812a41.7,41.7,0,0,0-17.25,0,1.836,1.836,0,0,1-2.138-2.318l1.549-5.231A3.214,3.214,0,0,1,25.717,59.183ZM6.421,32.807a1.889,1.889,0,0,1,2.1-.615c3.171,1.006,4.705,1.889,7.524,2.076q-.279.476-.523.967c-4.545-.806-7.616-2.9-10.533-.3l-.8.7ZM2.48,40.189a1.226,1.226,0,0,1-.4-.315L6.177,36.28c1.995-1.778,4.262-.2,8.629.651a15.209,15.209,0,0,0-.852,4.563C8.232,44.3,3.736,40.577,2.48,40.189Zm50.345-8a1.889,1.889,0,0,1,2.1.615l2.232,2.827-.793-.7c-2.924-2.606-6-.508-10.538.3-.162-.328-.337-.65-.523-.967,2.812-.186,4.33-1.062,7.524-2.076ZM41.49,29.226a7.872,7.872,0,0,0-2.024-1.8,18.832,18.832,0,0,0,8.48-4.833c1.41-1.4,2.6-2.676,3.543-3.81-.755,4.049-2.708,9.538-7.681,13.362ZM58.863,40.189c-1.251.386-5.741,4.118-11.474,1.305a15.208,15.208,0,0,0-.852-4.564c4.375-.85,6.633-2.43,8.634-.646l4.089,3.59A1.227,1.227,0,0,1,58.863,40.189Z" transform="translate(0 -16.914)" fill="#496c58" stroke="#496c58" stroke-width="0.5"/>
    </g>
  </g>
</svg>
