<svg xmlns="http://www.w3.org/2000/svg" xmlns:xlink="http://www.w3.org/1999/xlink" width="117.999" height="118" viewBox="0 0 117.999 118">
  <defs>
    <filter id="Trazado_874925" x="0" y="0" width="117.999" height="118" filterUnits="userSpaceOnUse">
      <feOffset dy="3" input="SourceAlpha"/>
      <feGaussianBlur stdDeviation="3" result="blur"/>
      <feFlood flood-opacity="0.161"/>
      <feComposite operator="in" in2="blur"/>
      <feComposite in="SourceGraphic"/>
    </filter>
  </defs>
  <g id="Grupo_1108010" data-name="Grupo 1108010" transform="translate(9 6)">
    <g transform="matrix(1, 0, 0, 1, -9, -6)" filter="url(#Trazado_874925)">
      <g id="Trazado_874925-2" data-name="Trazado 874925" transform="translate(9 6)" fill="#f1de5f" opacity="0.859">
        <path d="M 49.99973678588867 98.5 C 43.45165252685547 98.5 37.10023498535156 97.21788787841797 31.12190818786621 94.68927001953125 C 25.34677886962891 92.24659729003906 20.15986442565918 88.74937438964844 15.70525074005127 84.29476928710938 C 11.25063705444336 79.84015655517578 7.753408432006836 74.65324401855469 5.310736656188965 68.87809753417969 C 2.782122611999512 62.89978408813477 1.500008225440979 56.54837036132812 1.500008225440979 50.00028610229492 C 1.500008225440979 43.45162963867188 2.782122611999512 37.10021591186523 5.310736656188965 31.12190055847168 C 7.753408432006836 25.34675788879395 11.25063705444336 20.15984344482422 15.70525074005127 15.70522880554199 C 20.15986442565918 11.25062847137451 25.34677886962891 7.753399848937988 31.12190818786621 5.310728549957275 C 37.10023498535156 2.782114267349243 43.45165252685547 1.5 49.99973678588867 1.5 C 56.54782104492188 1.5 62.89923858642578 2.782114267349243 68.8775634765625 5.310728549957275 C 74.6527099609375 7.753399848937988 79.83962249755859 11.25062847137451 84.29423522949219 15.70522880554199 C 88.74884796142578 20.15984344482422 92.24606323242188 25.34675788879395 94.68875122070312 31.12190055847168 C 97.21736907958984 37.10021591186523 98.49948120117188 43.45162963867188 98.49948120117188 49.99971389770508 C 98.49948120117188 56.54837036132812 97.21736907958984 62.89978408813477 94.68875122070312 68.87809753417969 C 92.24606323242188 74.65324401855469 88.74884796142578 79.84015655517578 84.29423522949219 84.29476928710938 C 79.83962249755859 88.74937438964844 74.6527099609375 92.24659729003906 68.8775634765625 94.68927001953125 C 62.89923858642578 97.21788787841797 56.54782104492188 98.5 49.99973678588867 98.5 Z" stroke="none"/>
        <path d="M 49.99973678588867 3 C 43.65349197387695 3 37.49867630004883 4.24224853515625 31.70624542236328 6.692230224609375 C 26.10990905761719 9.059295654296875 21.08324432373047 12.44855499267578 16.76590728759766 16.76589202880859 C 12.44857025146484 21.08322906494141 9.059288024902344 26.10989379882812 6.692245483398438 31.70621490478516 C 4.242240905761719 37.4986457824707 3 43.65346145629883 3 50.00029373168945 C 3 56.34653854370117 4.242240905761719 62.5013542175293 6.692245483398438 68.29378509521484 C 9.059288024902344 73.89010620117188 12.44857025146484 78.91677093505859 16.76590728759766 83.23410797119141 C 21.08324432373047 87.55144500732422 26.10990905761719 90.94070434570312 31.70624542236328 93.30776977539062 C 37.49867630004883 95.75775146484375 43.65349197387695 97 49.99973678588867 97 C 56.34598159790039 97 62.50079727172852 95.75775146484375 68.29322814941406 93.30776977539062 C 73.88957214355469 90.94070434570312 78.91622924804688 87.55144500732422 83.23356628417969 83.23410797119141 C 87.5509033203125 78.91677093505859 90.940185546875 73.89010620117188 93.30722808837891 68.29378509521484 C 95.75723266601562 62.5013542175293 96.99947357177734 56.34653854370117 96.99947357177734 49.99970626831055 C 96.99947357177734 43.65346145629883 95.75723266601562 37.4986457824707 93.30722808837891 31.70621490478516 C 90.940185546875 26.10989379882812 87.5509033203125 21.08322906494141 83.23356628417969 16.76589202880859 C 78.91622924804688 12.44855499267578 73.88957214355469 9.059295654296875 68.29322814941406 6.692230224609375 C 62.50079727172852 4.24224853515625 56.34598159790039 3 49.99973678588867 3 M 49.99973678588867 0 C 77.61383056640625 0 99.99947357177734 22.38562774658203 99.99947357177734 49.99970626831055 L 99.99947357177734 50.00029373168945 C 99.99947357177734 77.61436462402344 77.61383056640625 100 49.99973678588867 100 C 22.38564300537109 100 0 77.61436462402344 0 50.00029373168945 L 0 49.99970626831055 C 0 22.38562774658203 22.38564300537109 0 49.99973678588867 0 Z" stroke="none" fill="#fff"/>
      </g>
    </g>
    <g id="Trazado_874923" data-name="Trazado 874923" transform="translate(0 0)" fill="none">
      <path d="M50,0a50,50,0,0,1,50,50h0A50,50,0,0,1,0,50H0A50,50,0,0,1,50,0Z" stroke="none"/>
      <path d="M 49.99973678588867 3 C 43.65349197387695 3 37.49867630004883 4.24224853515625 31.70624542236328 6.692230224609375 C 26.10990905761719 9.059295654296875 21.08324432373047 12.44855499267578 16.76590728759766 16.76589202880859 C 12.44857025146484 21.08322906494141 9.059288024902344 26.10989379882812 6.692245483398438 31.70621490478516 C 4.242240905761719 37.4986457824707 3 43.65346145629883 3 50.00029373168945 C 3 56.34653854370117 4.242240905761719 62.5013542175293 6.692245483398438 68.29378509521484 C 9.059288024902344 73.89010620117188 12.44857025146484 78.91677093505859 16.76590728759766 83.23410797119141 C 21.08324432373047 87.55144500732422 26.10990905761719 90.94070434570312 31.70624542236328 93.30776977539062 C 37.49867630004883 95.75775146484375 43.65349197387695 97 49.99973678588867 97 C 56.34598159790039 97 62.50079727172852 95.75775146484375 68.29322814941406 93.30776977539062 C 73.88957214355469 90.94070434570312 78.91622924804688 87.55144500732422 83.23356628417969 83.23410797119141 C 87.5509033203125 78.91677093505859 90.940185546875 73.89010620117188 93.30722808837891 68.29378509521484 C 95.75723266601562 62.5013542175293 96.99947357177734 56.34653854370117 96.99947357177734 49.99970626831055 C 96.99947357177734 43.65346145629883 95.75723266601562 37.4986457824707 93.30722808837891 31.70621490478516 C 90.940185546875 26.10989379882812 87.5509033203125 21.08322906494141 83.23356628417969 16.76589202880859 C 78.91622924804688 12.44855499267578 73.88957214355469 9.059295654296875 68.29322814941406 6.692230224609375 C 62.50079727172852 4.24224853515625 56.34598159790039 3 49.99973678588867 3 M 49.99973678588867 0 C 77.61383056640625 0 99.99947357177734 22.38562774658203 99.99947357177734 49.99970626831055 L 99.99947357177734 50.00029373168945 C 99.99947357177734 77.61436462402344 77.61383056640625 100 49.99973678588867 100 C 22.38564300537109 100 0 77.61436462402344 0 50.00029373168945 L 0 49.99970626831055 C 0 22.38562774658203 22.38564300537109 0 49.99973678588867 0 Z" stroke="none" fill="#fff"/>
    </g>
    <g id="Grupo_1108016" data-name="Grupo 1108016" transform="translate(21.037 21.037)">
      <path id="Trazado_898141" data-name="Trazado 898141" d="M56.123,45.846h-4.8a3.732,3.732,0,0,0-3.6-2.8V36.479a4.623,4.623,0,0,0,2.8.959,4.677,4.677,0,0,0,4.671-4.671,4.42,4.42,0,0,0-.09-.881,4.643,4.643,0,0,0,.462-7.2,4.591,4.591,0,0,0-.65-5.311,4.5,4.5,0,0,0,.278-1.555,4.678,4.678,0,0,0-4.126-4.64,4.653,4.653,0,0,0-8.566,0,4.678,4.678,0,0,0-4.126,4.64,4.5,4.5,0,0,0,.278,1.555,4.628,4.628,0,0,0-1.019,1.866A6.033,6.033,0,0,0,33.7,19.686,6.334,6.334,0,0,0,29,21.98a5.486,5.486,0,0,0-1.57-3.341l-2.69-2.69h4.285V14.067a2.766,2.766,0,0,0-1.167-2.236A24.561,24.561,0,0,1,19.98,2.386a2.38,2.38,0,0,0-4.326,0,24.532,24.532,0,0,1-7.883,9.445,2.767,2.767,0,0,0-1.166,2.236v1.882H10.89L8.2,18.639a5.483,5.483,0,0,0-1.595,3.85v.934H10.89L8.2,26.113a5.483,5.483,0,0,0-1.595,3.85V30.9H16.883v3.737a4.678,4.678,0,0,0-4.64,4.126,4.663,4.663,0,0,0-1.9,7.086,2.806,2.806,0,0,0-2.8,2.8.935.935,0,0,1-.934.934H3.8a2.8,2.8,0,1,0,0,5.606H8.646a2.771,2.771,0,0,0-.172.934,2.806,2.806,0,0,0,2.8,2.8H47.715a2.8,2.8,0,1,0,0-5.606h-2.8a.934.934,0,1,1,0-1.869H56.123a2.8,2.8,0,1,0,0-5.606Zm-6.811,0H36.779a1.861,1.861,0,0,1,.983-.82l.648-.226-.022-.687a.564.564,0,0,0-.016-.135A2.791,2.791,0,0,1,43.6,42.612l.221.393.447.07a1.859,1.859,0,0,1,1.5,1.351l.275,1.015.975-.392A1.877,1.877,0,0,1,49.312,45.846ZM34.635,40.152a7.465,7.465,0,0,0,5.086-4.123,4.688,4.688,0,0,0,3.322,1.409,4.623,4.623,0,0,0,2.8-.959V41.7A3.685,3.685,0,0,0,45,41.328a4.658,4.658,0,0,0-8.479,2.216,3.745,3.745,0,0,0-1.766,2.3h-.122ZM40.361,20.32l.606-.49-.373-.684a2.778,2.778,0,0,1,2.388-4.135l.907.047.187-.734a2.787,2.787,0,0,1,5.409,0l.187.734.759-.032c.05,0,.1-.007.087-.012a2.806,2.806,0,0,1,2.8,2.8,2.768,2.768,0,0,1-.354,1.329l-.373.684.606.49a2.746,2.746,0,0,1,.377,3.971l-.715.842.949.564a2.778,2.778,0,0,1-.214,4.912l-.769.372.3.8a2.8,2.8,0,1,1-5.415.988V30.292l3.533-4.416-1.46-1.168L47.715,27.3V17.817H45.846v5.744l-2.073-2.591-1.46,1.168,3.534,4.416v6.211a2.8,2.8,0,0,1-5.29,1.279,13.56,13.56,0,0,0,.619-4.082,12.63,12.63,0,0,0-1.869-6.775v-.7a2.782,2.782,0,0,1,1.055-2.168ZM33.7,21.554c3.092,0,5.606,3.772,5.606,8.409,0,4.159-2.025,7.612-4.671,8.283V31.226l3.533-4.416-1.46-1.168-2.072,2.591V25.292H32.766v7.191l-2.026-3.038-1.555,1.036,3.58,5.371v2.394c-2.647-.67-4.671-4.124-4.671-8.283,0-4.637,2.514-8.409,5.606-8.409Zm-5.761,1.869a11.383,11.383,0,0,0-1,2.193l-2.194-2.193ZM9.522,27.434l4.011-4.011h1.482V21.554H8.6a3.607,3.607,0,0,1,.921-1.595l4.011-4.011h1.482V14.08H8.474v-.013a.884.884,0,0,1,.386-.718A26.409,26.409,0,0,0,17.344,3.185a.528.528,0,0,1,.947,0,26.423,26.423,0,0,0,8.482,10.164.884.884,0,0,1,.387.718l-6.54.013v1.869H22.1l4.011,4.011a3.589,3.589,0,0,1,.921,1.595H20.62v1.869H22.1l4.011,4.011a3.568,3.568,0,0,1,.29.33c-.065.413-.114.834-.142,1.265H8.6A3.6,3.6,0,0,1,9.522,27.434Zm9.23,3.463h7.509c.317,4.8,3.047,8.657,6.506,9.254v5.695H29.014a4.657,4.657,0,0,0-3.722-7.474,4.413,4.413,0,0,0-.881.09A4.618,4.618,0,0,0,20.62,36.5H20.6a4.682,4.682,0,0,0-1.849-1.463ZM13.39,40.338l.734-.187-.032-.759a.285.285,0,0,0-.011-.09v0a2.791,2.791,0,0,1,5.234-1.362l.393.546.633-.089a2.278,2.278,0,0,1,.28-.028,2.776,2.776,0,0,1,2.513,1.591l.372.772.8-.3a2.8,2.8,0,0,1,2.838,4.715l-.541.7H12.881l-.655-.7a2.793,2.793,0,0,1,1.163-4.807Zm42.734,9.245H44.912a2.806,2.806,0,0,0-2.8,2.8,2.771,2.771,0,0,0,.172.934H40.24v1.869h7.474a.934.934,0,1,1,0,1.869H11.277a.934.934,0,1,1,0-1.869h5.606V53.32H3.8a.934.934,0,1,1,0-1.869h2.8a2.806,2.806,0,0,0,2.8-2.8.935.935,0,0,1,.934-.934H56.123a.934.934,0,1,1,0,1.869Z" transform="translate(-1 -1)" fill="#496c58"/>
      <path id="Trazado_898142" data-name="Trazado 898142" d="M23.606,55.336A2.338,2.338,0,0,0,21.27,53H18v1.869h3.27a.469.469,0,0,1,.467.467,2.338,2.338,0,0,0,2.336,2.336h3.27V55.8h-3.27A.469.469,0,0,1,23.606,55.336Z" transform="translate(-2.117 -4.417)" fill="#496c58"/>
    </g>
  </g>
</svg>
