<svg xmlns="http://www.w3.org/2000/svg" xmlns:xlink="http://www.w3.org/1999/xlink" width="117.999" height="118" viewBox="0 0 117.999 118">
  <defs>
    <filter id="Trazado_874925" x="0" y="0" width="117.999" height="118" filterUnits="userSpaceOnUse">
      <feOffset dy="3" input="SourceAlpha"/>
      <feGaussianBlur stdDeviation="3" result="blur"/>
      <feFlood flood-opacity="0.161"/>
      <feComposite operator="in" in2="blur"/>
      <feComposite in="SourceGraphic"/>
    </filter>
  </defs>
  <g id="Grupo_1107927" data-name="Grupo 1107927" transform="translate(9 6)">
    <g transform="matrix(1, 0, 0, 1, -9, -6)" filter="url(#Trazado_874925)">
      <g id="Trazado_874925-2" data-name="Trazado 874925" transform="translate(9 6)" fill="#f1de5f" opacity="0.859">
        <path d="M 49.99973678588867 98.5 C 43.45165252685547 98.5 37.10023498535156 97.21788787841797 31.12190818786621 94.68927001953125 C 25.34677886962891 92.24659729003906 20.15986442565918 88.74937438964844 15.70525074005127 84.29476928710938 C 11.25063705444336 79.84015655517578 7.753408432006836 74.65324401855469 5.310736656188965 68.87809753417969 C 2.782122611999512 62.89978408813477 1.500008225440979 56.54837036132812 1.500008225440979 50.00028610229492 C 1.500008225440979 43.45162963867188 2.782122611999512 37.10021591186523 5.310736656188965 31.12190055847168 C 7.753408432006836 25.34675788879395 11.25063705444336 20.15984344482422 15.70525074005127 15.70522880554199 C 20.15986442565918 11.25062847137451 25.34677886962891 7.753399848937988 31.12190818786621 5.310728549957275 C 37.10023498535156 2.782114267349243 43.45165252685547 1.5 49.99973678588867 1.5 C 56.54782104492188 1.5 62.89923858642578 2.782114267349243 68.8775634765625 5.310728549957275 C 74.6527099609375 7.753399848937988 79.83962249755859 11.25062847137451 84.29423522949219 15.70522880554199 C 88.74884796142578 20.15984344482422 92.24606323242188 25.34675788879395 94.68875122070312 31.12190055847168 C 97.21736907958984 37.10021591186523 98.49948120117188 43.45162963867188 98.49948120117188 49.99971389770508 C 98.49948120117188 56.54837036132812 97.21736907958984 62.89978408813477 94.68875122070312 68.87809753417969 C 92.24606323242188 74.65324401855469 88.74884796142578 79.84015655517578 84.29423522949219 84.29476928710938 C 79.83962249755859 88.74937438964844 74.6527099609375 92.24659729003906 68.8775634765625 94.68927001953125 C 62.89923858642578 97.21788787841797 56.54782104492188 98.5 49.99973678588867 98.5 Z" stroke="none"/>
        <path d="M 49.99973678588867 3 C 43.65349197387695 3 37.49867630004883 4.24224853515625 31.70624542236328 6.692230224609375 C 26.10990905761719 9.059295654296875 21.08324432373047 12.44855499267578 16.76590728759766 16.76589202880859 C 12.44857025146484 21.08322906494141 9.059288024902344 26.10989379882812 6.692245483398438 31.70621490478516 C 4.242240905761719 37.4986457824707 3 43.65346145629883 3 50.00029373168945 C 3 56.34653854370117 4.242240905761719 62.5013542175293 6.692245483398438 68.29378509521484 C 9.059288024902344 73.89010620117188 12.44857025146484 78.91677093505859 16.76590728759766 83.23410797119141 C 21.08324432373047 87.55144500732422 26.10990905761719 90.94070434570312 31.70624542236328 93.30776977539062 C 37.49867630004883 95.75775146484375 43.65349197387695 97 49.99973678588867 97 C 56.34598159790039 97 62.50079727172852 95.75775146484375 68.29322814941406 93.30776977539062 C 73.88957214355469 90.94070434570312 78.91622924804688 87.55144500732422 83.23356628417969 83.23410797119141 C 87.5509033203125 78.91677093505859 90.940185546875 73.89010620117188 93.30722808837891 68.29378509521484 C 95.75723266601562 62.5013542175293 96.99947357177734 56.34653854370117 96.99947357177734 49.99970626831055 C 96.99947357177734 43.65346145629883 95.75723266601562 37.4986457824707 93.30722808837891 31.70621490478516 C 90.940185546875 26.10989379882812 87.5509033203125 21.08322906494141 83.23356628417969 16.76589202880859 C 78.91622924804688 12.44855499267578 73.88957214355469 9.059295654296875 68.29322814941406 6.692230224609375 C 62.50079727172852 4.24224853515625 56.34598159790039 3 49.99973678588867 3 M 49.99973678588867 0 C 77.61383056640625 0 99.99947357177734 22.38562774658203 99.99947357177734 49.99970626831055 L 99.99947357177734 50.00029373168945 C 99.99947357177734 77.61436462402344 77.61383056640625 100 49.99973678588867 100 C 22.38564300537109 100 0 77.61436462402344 0 50.00029373168945 L 0 49.99970626831055 C 0 22.38562774658203 22.38564300537109 0 49.99973678588867 0 Z" stroke="none" fill="#fff"/>
      </g>
    </g>
    <g id="Trazado_874923" data-name="Trazado 874923" transform="translate(0 0)" fill="none">
      <path d="M50,0a50,50,0,0,1,50,50h0A50,50,0,0,1,0,50H0A50,50,0,0,1,50,0Z" stroke="none"/>
      <path d="M 49.99973678588867 3 C 43.65349197387695 3 37.49867630004883 4.24224853515625 31.70624542236328 6.692230224609375 C 26.10990905761719 9.059295654296875 21.08324432373047 12.44855499267578 16.76590728759766 16.76589202880859 C 12.44857025146484 21.08322906494141 9.059288024902344 26.10989379882812 6.692245483398438 31.70621490478516 C 4.242240905761719 37.4986457824707 3 43.65346145629883 3 50.00029373168945 C 3 56.34653854370117 4.242240905761719 62.5013542175293 6.692245483398438 68.29378509521484 C 9.059288024902344 73.89010620117188 12.44857025146484 78.91677093505859 16.76590728759766 83.23410797119141 C 21.08324432373047 87.55144500732422 26.10990905761719 90.94070434570312 31.70624542236328 93.30776977539062 C 37.49867630004883 95.75775146484375 43.65349197387695 97 49.99973678588867 97 C 56.34598159790039 97 62.50079727172852 95.75775146484375 68.29322814941406 93.30776977539062 C 73.88957214355469 90.94070434570312 78.91622924804688 87.55144500732422 83.23356628417969 83.23410797119141 C 87.5509033203125 78.91677093505859 90.940185546875 73.89010620117188 93.30722808837891 68.29378509521484 C 95.75723266601562 62.5013542175293 96.99947357177734 56.34653854370117 96.99947357177734 49.99970626831055 C 96.99947357177734 43.65346145629883 95.75723266601562 37.4986457824707 93.30722808837891 31.70621490478516 C 90.940185546875 26.10989379882812 87.5509033203125 21.08322906494141 83.23356628417969 16.76589202880859 C 78.91622924804688 12.44855499267578 73.88957214355469 9.059295654296875 68.29322814941406 6.692230224609375 C 62.50079727172852 4.24224853515625 56.34598159790039 3 49.99973678588867 3 M 49.99973678588867 0 C 77.61383056640625 0 99.99947357177734 22.38562774658203 99.99947357177734 49.99970626831055 L 99.99947357177734 50.00029373168945 C 99.99947357177734 77.61436462402344 77.61383056640625 100 49.99973678588867 100 C 22.38564300537109 100 0 77.61436462402344 0 50.00029373168945 L 0 49.99970626831055 C 0 22.38562774658203 22.38564300537109 0 49.99973678588867 0 Z" stroke="none" fill="#fff"/>
    </g>
    <path id="Trazado_898153" data-name="Trazado 898153" d="M62.023,25.381l-1.539-.5a.917.917,0,0,0-.824.13l-4.618,3.354-5.627-6.075a.918.918,0,0,0-.978-.242l-4.957,1.745-.138-.18a17.546,17.546,0,0,0-3.986-3.78,8.366,8.366,0,0,0,.54-1.292l3.1-.433a.92.92,0,0,0,.72-.556l2.317-5.557L50.975,9.3A.918.918,0,1,0,50.1,7.692l-5.226,2.844a.92.92,0,0,0-.408.453l-2.24,5.372-2.023.283a6.762,6.762,0,0,0-.082-1.168.918.918,0,0,0-1.813.288,5.4,5.4,0,0,1-.714,3.5h-12.4l-.28-.578a4.961,4.961,0,0,1,2.3-6.615c1.688,2.556,6.685,2.527,8.354,0a4.808,4.808,0,0,1,.913.571.918.918,0,0,0,1.14-1.439,6.686,6.686,0,0,0-1.586-.933,2.894,2.894,0,0,0-.666-1.578l4.1-3.584h4.4a.919.919,0,0,0,.7-.328L46.894,2A.918.918,0,0,0,45.487.825L43.438,3.27H39.124a.919.919,0,0,0-.6.227l-4.654,4.07a5.669,5.669,0,0,0-1.556-.449V5.033a.918.918,0,0,0-1.836,0V7.117a5.664,5.664,0,0,0-1.556.449L24.263,3.5a.918.918,0,0,0-.6-.227H19.346L17.3.826A.918.918,0,1,0,15.89,2l2.324,2.773a.918.918,0,0,0,.7.328h4.4l4.1,3.585a2.888,2.888,0,0,0-.666,1.577,6.8,6.8,0,0,0-4.162,6.394l-2.155-.3-2.239-5.372a.917.917,0,0,0-.409-.453L12.558,7.692A.918.918,0,0,0,11.68,9.3l4.943,2.689,2.317,5.557a.918.918,0,0,0,.72.556l3.238.452a8.142,8.142,0,0,0,.532,1.273,17.866,17.866,0,0,0-4.152,4l-5.059-1.781a.918.918,0,0,0-.978.242L7.614,28.363,3,25.009a.917.917,0,0,0-.824-.13l-1.539.5a.918.918,0,1,0,.57,1.745L2.3,26.769l4.9,3.558a.918.918,0,0,0,1.213-.119l5.771-6.23L18.2,25.395a22.875,22.875,0,0,0-2.99,8.089l-4.5.918a.918.918,0,0,0-.708.683l-3.112,12.8L4.981,50.154H2.455a.918.918,0,1,0,0,1.835H5.408a.918.918,0,0,0,.7-.327L8.435,48.9a.914.914,0,0,0,.19-.374l3.025-12.44,3.3-.673c-.562,5.53.359,10.744,5.017,16.933a.862.862,0,0,0,.07.11,40.539,40.539,0,0,0,6.045,6.314,7.6,7.6,0,0,0,5.309,2.293,7.014,7.014,0,0,0,4.42-1.554,41.477,41.477,0,0,0,6.935-7.053.862.862,0,0,0,.07-.11c4.288-5.7,5.633-10.827,5.02-16.906L51,36.084l3.025,12.44a.919.919,0,0,0,.189.374l2.325,2.765a.918.918,0,0,0,.7.327H60.2a.918.918,0,1,0,0-1.836H57.674l-1.911-2.273-3.112-12.8a.918.918,0,0,0-.708-.683l-4.368-.891a22.6,22.6,0,0,0-3.017-8.154l3.92-1.38,5.771,6.23a.918.918,0,0,0,1.213.119l4.9-3.558,1.094.358a.918.918,0,1,0,.57-1.745ZM31.392,8.888c1.662,0,2.82.858,2.82,1.627,0,.859-1.264,1.489-2.347,1.6-1.786.187-3.294-.714-3.294-1.6,0-.769,1.158-1.627,2.82-1.627Zm10.04,42.247a9.518,9.518,0,0,1-5.211.32l-2.388-.525a11.458,11.458,0,0,0-4.883,0l-2.388.525a9.513,9.513,0,0,1-5.211-.32,25.388,25.388,0,0,1-3.635-6.621l1.929.914a11.431,11.431,0,0,0,4.881,1.092,11.315,11.315,0,0,0,2.43-.263l2.388-.524a9.6,9.6,0,0,1,4.1,0c2.587.568,5.729,1.574,9.7-.3l1.929-.914a25.4,25.4,0,0,1-3.635,6.621Zm4.517-16.06-3.6,1.7c-3.5,1.656-6.151.647-8.659.142a.919.919,0,1,0-.361,1.8c2.4.482,5.657,1.682,9.806-.282l2.976-1.409a18.553,18.553,0,0,1-.373,5.136l-3.389,1.6c-3.332,1.578-5.9.747-8.519.171a11.458,11.458,0,0,0-4.883,0l-2.388.525a9.591,9.591,0,0,1-6.131-.7l-3.389-1.6a18.512,18.512,0,0,1-.373-5.136c3.051,1.445,5.9,3.2,10.287,2.238l2.391-.525.03-.006a.918.918,0,0,0-.387-1.795c-2.666.585-5.221,1.417-8.559-.163l-3.6-1.7a23.418,23.418,0,0,1,.988-4.492c1.99.942,4.877,2.627,9.133,1.692l2.388-.524a9.605,9.605,0,0,1,4.1,0c2.586.568,5.729,1.575,9.7-.3l1.822-.863a23.43,23.43,0,0,1,.989,4.492Zm-3.6-5.289c-3.332,1.578-5.894.748-8.519.171a11.451,11.451,0,0,0-4.883,0c-2.61.573-5.179,1.411-8.519-.171l-1.957-.926a18.768,18.768,0,0,1,2.285-3.949,11.643,11.643,0,0,0,6.922.214,4.661,4.661,0,0,0,7.423,0,11.606,11.606,0,0,0,6.922-.214A18.768,18.768,0,0,1,44.31,28.86Zm-1.628-6.4a9.468,9.468,0,0,1-4.251.15l1.878-2.171a14.967,14.967,0,0,1,2.373,2.021ZM36.16,21.1l-2.633,3.044a2.823,2.823,0,0,1-3.029.831c-.945-.316-1.059-.621-3.874-3.875Zm-11.727.272,1.878,2.171a9.471,9.471,0,0,1-4.252-.15,15,15,0,0,1,2.373-2.021ZM31.69,59.22c-2.244.127-3.42-.981-4.754-2.138a41.1,41.1,0,0,1-3.7-3.64,11.354,11.354,0,0,0,3.719-.194l2.388-.524a9.6,9.6,0,0,1,4.1,0l2.388.524a11.354,11.354,0,0,0,3.719.194,41.983,41.983,0,0,1-4.89,4.64A5.175,5.175,0,0,1,31.69,59.22Zm0,0" transform="translate(18.673 19.22)" fill="#496c58"/>
  </g>
</svg>
