<svg xmlns="http://www.w3.org/2000/svg" xmlns:xlink="http://www.w3.org/1999/xlink" width="117.999" height="118" viewBox="0 0 117.999 118">
  <defs>
    <filter id="Trazado_874925" x="0" y="0" width="117.999" height="118" filterUnits="userSpaceOnUse">
      <feOffset dy="3" input="SourceAlpha"/>
      <feGaussianBlur stdDeviation="3" result="blur"/>
      <feFlood flood-opacity="0.161"/>
      <feComposite operator="in" in2="blur"/>
      <feComposite in="SourceGraphic"/>
    </filter>
  </defs>
  <g id="Grupo_1108011" data-name="Grupo 1108011" transform="translate(9 6)">
    <g transform="matrix(1, 0, 0, 1, -9, -6)" filter="url(#Trazado_874925)">
      <g id="Trazado_874925-2" data-name="Trazado 874925" transform="translate(9 6)" fill="#f1de5f" opacity="0.859">
        <path d="M 49.99973678588867 98.5 C 43.45165252685547 98.5 37.10023498535156 97.21788787841797 31.12190818786621 94.68927001953125 C 25.34677886962891 92.24659729003906 20.15986442565918 88.74937438964844 15.70525074005127 84.29476928710938 C 11.25063705444336 79.84015655517578 7.753408432006836 74.65324401855469 5.310736656188965 68.87809753417969 C 2.782122611999512 62.89978408813477 1.500008225440979 56.54837036132812 1.500008225440979 50.00028610229492 C 1.500008225440979 43.45162963867188 2.782122611999512 37.10021591186523 5.310736656188965 31.12190055847168 C 7.753408432006836 25.34675788879395 11.25063705444336 20.15984344482422 15.70525074005127 15.70522880554199 C 20.15986442565918 11.25062847137451 25.34677886962891 7.753399848937988 31.12190818786621 5.310728549957275 C 37.10023498535156 2.782114267349243 43.45165252685547 1.5 49.99973678588867 1.5 C 56.54782104492188 1.5 62.89923858642578 2.782114267349243 68.8775634765625 5.310728549957275 C 74.6527099609375 7.753399848937988 79.83962249755859 11.25062847137451 84.29423522949219 15.70522880554199 C 88.74884796142578 20.15984344482422 92.24606323242188 25.34675788879395 94.68875122070312 31.12190055847168 C 97.21736907958984 37.10021591186523 98.49948120117188 43.45162963867188 98.49948120117188 49.99971389770508 C 98.49948120117188 56.54837036132812 97.21736907958984 62.89978408813477 94.68875122070312 68.87809753417969 C 92.24606323242188 74.65324401855469 88.74884796142578 79.84015655517578 84.29423522949219 84.29476928710938 C 79.83962249755859 88.74937438964844 74.6527099609375 92.24659729003906 68.8775634765625 94.68927001953125 C 62.89923858642578 97.21788787841797 56.54782104492188 98.5 49.99973678588867 98.5 Z" stroke="none"/>
        <path d="M 49.99973678588867 3 C 43.65349197387695 3 37.49867630004883 4.24224853515625 31.70624542236328 6.692230224609375 C 26.10990905761719 9.059295654296875 21.08324432373047 12.44855499267578 16.76590728759766 16.76589202880859 C 12.44857025146484 21.08322906494141 9.059288024902344 26.10989379882812 6.692245483398438 31.70621490478516 C 4.242240905761719 37.4986457824707 3 43.65346145629883 3 50.00029373168945 C 3 56.34653854370117 4.242240905761719 62.5013542175293 6.692245483398438 68.29378509521484 C 9.059288024902344 73.89010620117188 12.44857025146484 78.91677093505859 16.76590728759766 83.23410797119141 C 21.08324432373047 87.55144500732422 26.10990905761719 90.94070434570312 31.70624542236328 93.30776977539062 C 37.49867630004883 95.75775146484375 43.65349197387695 97 49.99973678588867 97 C 56.34598159790039 97 62.50079727172852 95.75775146484375 68.29322814941406 93.30776977539062 C 73.88957214355469 90.94070434570312 78.91622924804688 87.55144500732422 83.23356628417969 83.23410797119141 C 87.5509033203125 78.91677093505859 90.940185546875 73.89010620117188 93.30722808837891 68.29378509521484 C 95.75723266601562 62.5013542175293 96.99947357177734 56.34653854370117 96.99947357177734 49.99970626831055 C 96.99947357177734 43.65346145629883 95.75723266601562 37.4986457824707 93.30722808837891 31.70621490478516 C 90.940185546875 26.10989379882812 87.5509033203125 21.08322906494141 83.23356628417969 16.76589202880859 C 78.91622924804688 12.44855499267578 73.88957214355469 9.059295654296875 68.29322814941406 6.692230224609375 C 62.50079727172852 4.24224853515625 56.34598159790039 3 49.99973678588867 3 M 49.99973678588867 0 C 77.61383056640625 0 99.99947357177734 22.38562774658203 99.99947357177734 49.99970626831055 L 99.99947357177734 50.00029373168945 C 99.99947357177734 77.61436462402344 77.61383056640625 100 49.99973678588867 100 C 22.38564300537109 100 0 77.61436462402344 0 50.00029373168945 L 0 49.99970626831055 C 0 22.38562774658203 22.38564300537109 0 49.99973678588867 0 Z" stroke="none" fill="#fff"/>
      </g>
    </g>
    <g id="Trazado_874923" data-name="Trazado 874923" transform="translate(0 0)" fill="none">
      <path d="M50,0a50,50,0,0,1,50,50h0A50,50,0,0,1,0,50H0A50,50,0,0,1,50,0Z" stroke="none"/>
      <path d="M 49.99973678588867 3 C 43.65349197387695 3 37.49867630004883 4.24224853515625 31.70624542236328 6.692230224609375 C 26.10990905761719 9.059295654296875 21.08324432373047 12.44855499267578 16.76590728759766 16.76589202880859 C 12.44857025146484 21.08322906494141 9.059288024902344 26.10989379882812 6.692245483398438 31.70621490478516 C 4.242240905761719 37.4986457824707 3 43.65346145629883 3 50.00029373168945 C 3 56.34653854370117 4.242240905761719 62.5013542175293 6.692245483398438 68.29378509521484 C 9.059288024902344 73.89010620117188 12.44857025146484 78.91677093505859 16.76590728759766 83.23410797119141 C 21.08324432373047 87.55144500732422 26.10990905761719 90.94070434570312 31.70624542236328 93.30776977539062 C 37.49867630004883 95.75775146484375 43.65349197387695 97 49.99973678588867 97 C 56.34598159790039 97 62.50079727172852 95.75775146484375 68.29322814941406 93.30776977539062 C 73.88957214355469 90.94070434570312 78.91622924804688 87.55144500732422 83.23356628417969 83.23410797119141 C 87.5509033203125 78.91677093505859 90.940185546875 73.89010620117188 93.30722808837891 68.29378509521484 C 95.75723266601562 62.5013542175293 96.99947357177734 56.34653854370117 96.99947357177734 49.99970626831055 C 96.99947357177734 43.65346145629883 95.75723266601562 37.4986457824707 93.30722808837891 31.70621490478516 C 90.940185546875 26.10989379882812 87.5509033203125 21.08322906494141 83.23356628417969 16.76589202880859 C 78.91622924804688 12.44855499267578 73.88957214355469 9.059295654296875 68.29322814941406 6.692230224609375 C 62.50079727172852 4.24224853515625 56.34598159790039 3 49.99973678588867 3 M 49.99973678588867 0 C 77.61383056640625 0 99.99947357177734 22.38562774658203 99.99947357177734 49.99970626831055 L 99.99947357177734 50.00029373168945 C 99.99947357177734 77.61436462402344 77.61383056640625 100 49.99973678588867 100 C 22.38564300537109 100 0 77.61436462402344 0 50.00029373168945 L 0 49.99970626831055 C 0 22.38562774658203 22.38564300537109 0 49.99973678588867 0 Z" stroke="none" fill="#fff"/>
    </g>
    <g id="Grupo_1108017" data-name="Grupo 1108017" transform="translate(18.76 16.813)">
      <path id="Trazado_898144" data-name="Trazado 898144" d="M45.325,58.6a.972.972,0,0,0-.972.972V65.4a.972.972,0,0,0,1.945,0V59.568A.972.972,0,0,0,45.325,58.6Zm12.79,3.241a.972.972,0,1,0,.972.972A.972.972,0,0,0,58.114,61.837Zm5.834,0a.972.972,0,1,0,.972.972A.972.972,0,0,0,63.948,61.837ZM58.114,56a.972.972,0,1,0,.972.972A.972.972,0,0,0,58.114,56Zm5.834,0a.972.972,0,1,0,.972.972A.972.972,0,0,0,63.948,56Zm25.16-23.918H77.441A2.92,2.92,0,0,0,74.524,35v9.334a2.92,2.92,0,0,0,2.917,2.917h1.167a.973.973,0,0,1,.972.972V49.9a8.565,8.565,0,0,0-1.989-.973L66.65,45.25a1.6,1.6,0,0,1-1.054-1.7,13.422,13.422,0,0,0,6.622-10.734,3.377,3.377,0,0,0,.027-6.751c0-.19.011-1.649-.012-1.8-.141-.976-.334-2.41-.5-3.852-.165-1.425-.336-2.9-.507-3.9a7.8,7.8,0,0,0,2.967-7.029,7.689,7.689,0,0,0-.835-2.752.972.972,0,0,0-1.724.9,5.753,5.753,0,0,1,.625,2.059A5.866,5.866,0,0,1,70,15a1.867,1.867,0,0,0-.7,1.8c.164.944.334,2.41.5,3.828.1.9.212,1.826.319,2.634a89.225,89.225,0,0,0-22.59,0l.813-6.252a1.879,1.879,0,0,0-.781-1.839,5.858,5.858,0,0,1-2.53-5.108A5.878,5.878,0,0,1,52.3,4.634a1.863,1.863,0,0,0,1.873-.61,5.874,5.874,0,0,1,8.967,0,1.862,1.862,0,0,0,1.873.61,5.9,5.9,0,0,1,2.128-.124,5.8,5.8,0,0,1,1.711.484.972.972,0,1,0,.809-1.768,7.728,7.728,0,0,0-2.284-.646,7.833,7.833,0,0,0-2.781.155,7.818,7.818,0,0,0-11.879,0,7.822,7.822,0,0,0-6.3,14.016c-.014.077-.981,7.539-.984,7.612,0,.043,0,1.657,0,1.7a3.377,3.377,0,0,0,.027,6.751,13.3,13.3,0,0,0,.915,4.1.972.972,0,1,0,1.807-.717,11.408,11.408,0,0,1-.8-4.226V25.253a86.908,86.908,0,0,1,22.926,0v6.72a11.463,11.463,0,0,1-19.9,7.763.972.972,0,1,0-1.43,1.317,13.4,13.4,0,0,0,3.463,2.7v.035a1.546,1.546,0,0,1-1.054,1.466L40.44,48.932a8.527,8.527,0,0,0-5.811,8.088V65.4a.972.972,0,0,0,1.945,0V57.019a6.584,6.584,0,0,1,4.487-6.245l9.174-3.087,4.634,3.591a5.7,5.7,0,0,0-2.8,4.89V65.4a.972.972,0,0,0,1.945,0V56.169a3.746,3.746,0,0,1,2.149-3.379l11.2-5.247,9.606,3.232a6.612,6.612,0,0,1,2.609,1.641v1.606h-.008A2.477,2.477,0,0,0,77.1,56.5V63.9a2.477,2.477,0,0,0,2.474,2.474H84.92a4.535,4.535,0,0,0,4.53-4.53V58.552a4.534,4.534,0,0,0-2.482-4.039V48.225a.973.973,0,0,1,.972-.972h1.167a2.92,2.92,0,0,0,2.917-2.917V35a2.92,2.92,0,0,0-2.916-2.917ZM72.245,28.01a1.434,1.434,0,0,1,0,2.857ZM45.43,30.868a1.434,1.434,0,0,1,0-2.857ZM56.824,50.333,52.418,46.92a3.486,3.486,0,0,0,1.87-2.34,13.368,13.368,0,0,0,9.431-.121,3.486,3.486,0,0,0,1.252,2.056Zm30.682,8.219v3.292a2.589,2.589,0,0,1-2.586,2.586H79.572a.53.53,0,0,1-.529-.529V56.5a.53.53,0,0,1,.529-.529H84.92a2.589,2.589,0,0,1,2.586,2.586ZM90.08,44.336a.973.973,0,0,1-.972.972H87.941a2.92,2.92,0,0,0-2.917,2.917v5.8c-.094,0-3.4,0-3.5,0v-5.8a2.92,2.92,0,0,0-2.917-2.917H77.441a.973.973,0,0,1-.972-.972V35a.973.973,0,0,1,.972-.972H89.108A.973.973,0,0,1,90.08,35ZM57.687,13.045v4.661a.972.972,0,0,0,1.945,0V13.045a.972.972,0,0,0-1.945,0Zm5.891-.373L61.64,17.333a.972.972,0,0,0,1.8.747l1.939-4.661a.972.972,0,0,0-1.8-.747Zm1.9,18.771V29.436a.972.972,0,0,0-1.945,0v2.007a.972.972,0,0,0,1.945,0Zm13.9,4.532a.972.972,0,0,0-.972.972v5.445a.972.972,0,0,0,1.945,0V36.946A.972.972,0,0,0,79.385,35.974ZM52.47,12.147a.972.972,0,0,0-.524,1.271l1.939,4.661a.972.972,0,0,0,1.8-.747l-1.939-4.661a.972.972,0,0,0-1.271-.524Zm30.8,23.827a.972.972,0,0,0-.972.972v5.445a.972.972,0,0,0,1.945,0V36.946A.972.972,0,0,0,83.274,35.974Zm3.889,0a.972.972,0,0,0-.972.972v5.445a.972.972,0,0,0,1.945,0V36.946A.972.972,0,0,0,87.163,35.974ZM58.981,38.093a4,4,0,0,0,2.173-.739.972.972,0,0,0-1.126-1.585,2.045,2.045,0,0,1-2.382,0,.972.972,0,1,0-1.124,1.587,4.476,4.476,0,0,0,2.459.738Zm-4.843-6.651V29.436a.972.972,0,0,0-1.945,0v2.007a.972.972,0,0,0,1.945,0Z" transform="translate(-34.629 0)" fill="#496c58"/>
    </g>
  </g>
</svg>
