<svg xmlns="http://www.w3.org/2000/svg" xmlns:xlink="http://www.w3.org/1999/xlink" width="118" height="118" viewBox="0 0 118 118">
  <defs>
    <filter id="Trazado_874925" x="0" y="0" width="118" height="118" filterUnits="userSpaceOnUse">
      <feOffset dy="3" input="SourceAlpha"/>
      <feGaussianBlur stdDeviation="3" result="blur"/>
      <feFlood flood-opacity="0.161"/>
      <feComposite operator="in" in2="blur"/>
      <feComposite in="SourceGraphic"/>
    </filter>
  </defs>
  <g id="Grupo_1108012" data-name="Grupo 1108012" transform="translate(9 6)">
    <g transform="matrix(1, 0, 0, 1, -9, -6)" filter="url(#Trazado_874925)">
      <g id="Trazado_874925-2" data-name="Trazado 874925" transform="translate(9 6)" fill="#f1de5f" opacity="0.859">
        <path d="M 49.99973678588867 98.5 C 43.45165252685547 98.5 37.10023498535156 97.21788787841797 31.12190818786621 94.68927001953125 C 25.34677886962891 92.24659729003906 20.15986442565918 88.74937438964844 15.70525074005127 84.29476928710938 C 11.25063705444336 79.84015655517578 7.753408432006836 74.65324401855469 5.310736656188965 68.87809753417969 C 2.782122611999512 62.89978408813477 1.500008225440979 56.54837036132812 1.500008225440979 50.00028610229492 C 1.500008225440979 43.45162963867188 2.782122611999512 37.10021591186523 5.310736656188965 31.12190055847168 C 7.753408432006836 25.34675788879395 11.25063705444336 20.15984344482422 15.70525074005127 15.70522880554199 C 20.15986442565918 11.25062847137451 25.34677886962891 7.753399848937988 31.12190818786621 5.310728549957275 C 37.10023498535156 2.782114267349243 43.45165252685547 1.5 49.99973678588867 1.5 C 56.54782104492188 1.5 62.89923858642578 2.782114267349243 68.8775634765625 5.310728549957275 C 74.6527099609375 7.753399848937988 79.83962249755859 11.25062847137451 84.29423522949219 15.70522880554199 C 88.74884796142578 20.15984344482422 92.24606323242188 25.34675788879395 94.68875122070312 31.12190055847168 C 97.21736907958984 37.10021591186523 98.49948120117188 43.45162963867188 98.49948120117188 49.99971389770508 C 98.49948120117188 56.54837036132812 97.21736907958984 62.89978408813477 94.68875122070312 68.87809753417969 C 92.24606323242188 74.65324401855469 88.74884796142578 79.84015655517578 84.29423522949219 84.29476928710938 C 79.83962249755859 88.74937438964844 74.6527099609375 92.24659729003906 68.8775634765625 94.68927001953125 C 62.89923858642578 97.21788787841797 56.54782104492188 98.5 49.99973678588867 98.5 Z" stroke="none"/>
        <path d="M 49.99973678588867 3 C 43.65349197387695 3 37.49867630004883 4.24224853515625 31.70624542236328 6.692230224609375 C 26.10990905761719 9.059295654296875 21.08324432373047 12.44855499267578 16.76590728759766 16.76589202880859 C 12.44857025146484 21.08322906494141 9.059288024902344 26.10989379882812 6.692245483398438 31.70621490478516 C 4.242240905761719 37.4986457824707 3 43.65346145629883 3 50.00029373168945 C 3 56.34653854370117 4.242240905761719 62.5013542175293 6.692245483398438 68.29378509521484 C 9.059288024902344 73.89010620117188 12.44857025146484 78.91677093505859 16.76590728759766 83.23410797119141 C 21.08324432373047 87.55144500732422 26.10990905761719 90.94070434570312 31.70624542236328 93.30776977539062 C 37.49867630004883 95.75775146484375 43.65349197387695 97 49.99973678588867 97 C 56.34598159790039 97 62.50079727172852 95.75775146484375 68.29322814941406 93.30776977539062 C 73.88957214355469 90.94070434570312 78.91622924804688 87.55144500732422 83.23356628417969 83.23410797119141 C 87.5509033203125 78.91677093505859 90.940185546875 73.89010620117188 93.30722808837891 68.29378509521484 C 95.75723266601562 62.5013542175293 96.99947357177734 56.34653854370117 96.99947357177734 49.99970626831055 C 96.99947357177734 43.65346145629883 95.75723266601562 37.4986457824707 93.30722808837891 31.70621490478516 C 90.940185546875 26.10989379882812 87.5509033203125 21.08322906494141 83.23356628417969 16.76589202880859 C 78.91622924804688 12.44855499267578 73.88957214355469 9.059295654296875 68.29322814941406 6.692230224609375 C 62.50079727172852 4.24224853515625 56.34598159790039 3 49.99973678588867 3 M 49.99973678588867 0 C 77.61383056640625 0 99.99947357177734 22.38562774658203 99.99947357177734 49.99970626831055 L 99.99947357177734 50.00029373168945 C 99.99947357177734 77.61436462402344 77.61383056640625 100 49.99973678588867 100 C 22.38564300537109 100 0 77.61436462402344 0 50.00029373168945 L 0 49.99970626831055 C 0 22.38562774658203 22.38564300537109 0 49.99973678588867 0 Z" stroke="none" fill="#fff"/>
      </g>
    </g>
    <g id="Trazado_874923" data-name="Trazado 874923" transform="translate(0 0)" fill="none">
      <path d="M50,0a50,50,0,0,1,50,50h0A50,50,0,0,1,0,50H0A50,50,0,0,1,50,0Z" stroke="none"/>
      <path d="M 49.99973678588867 3 C 43.65349197387695 3 37.49867630004883 4.24224853515625 31.70624542236328 6.692230224609375 C 26.10990905761719 9.059295654296875 21.08324432373047 12.44855499267578 16.76590728759766 16.76589202880859 C 12.44857025146484 21.08322906494141 9.059288024902344 26.10989379882812 6.692245483398438 31.70621490478516 C 4.242240905761719 37.4986457824707 3 43.65346145629883 3 50.00029373168945 C 3 56.34653854370117 4.242240905761719 62.5013542175293 6.692245483398438 68.29378509521484 C 9.059288024902344 73.89010620117188 12.44857025146484 78.91677093505859 16.76590728759766 83.23410797119141 C 21.08324432373047 87.55144500732422 26.10990905761719 90.94070434570312 31.70624542236328 93.30776977539062 C 37.49867630004883 95.75775146484375 43.65349197387695 97 49.99973678588867 97 C 56.34598159790039 97 62.50079727172852 95.75775146484375 68.29322814941406 93.30776977539062 C 73.88957214355469 90.94070434570312 78.91622924804688 87.55144500732422 83.23356628417969 83.23410797119141 C 87.5509033203125 78.91677093505859 90.940185546875 73.89010620117188 93.30722808837891 68.29378509521484 C 95.75723266601562 62.5013542175293 96.99947357177734 56.34653854370117 96.99947357177734 49.99970626831055 C 96.99947357177734 43.65346145629883 95.75723266601562 37.4986457824707 93.30722808837891 31.70621490478516 C 90.940185546875 26.10989379882812 87.5509033203125 21.08322906494141 83.23356628417969 16.76589202880859 C 78.91622924804688 12.44855499267578 73.88957214355469 9.059295654296875 68.29322814941406 6.692230224609375 C 62.50079727172852 4.24224853515625 56.34598159790039 3 49.99973678588867 3 M 49.99973678588867 0 C 77.61383056640625 0 99.99947357177734 22.38562774658203 99.99947357177734 49.99970626831055 L 99.99947357177734 50.00029373168945 C 99.99947357177734 77.61436462402344 77.61383056640625 100 49.99973678588867 100 C 22.38564300537109 100 0 77.61436462402344 0 50.00029373168945 L 0 49.99970626831055 C 0 22.38562774658203 22.38564300537109 0 49.99973678588867 0 Z" stroke="none" fill="#fff"/>
    </g>
    <g id="Grupo_1108018" data-name="Grupo 1108018" transform="translate(21.054 25.41)">
      <path id="Trazado_898145" data-name="Trazado 898145" d="M273.444,277.941l.364.068a.849.849,0,1,0,.313-1.669l-2.246-.421a.85.85,0,0,0-.983.643l-.516,2.226a.849.849,0,1,0,1.654.383l.049-.211,1.786,2.907a.723.723,0,0,1-.616,1.1.849.849,0,0,0,0,1.7,2.42,2.42,0,0,0,2.062-3.687Z" transform="translate(-239.753 -249.032)" fill="#496c58"/>
      <path id="Trazado_898146" data-name="Trazado 898146" d="M202.693,315.421a.849.849,0,0,0-1.226,1.175l.2.214h-4.4a.723.723,0,0,1-.613-1.105l.212-.34a.849.849,0,1,0-1.44-.9l-.212.34a2.42,2.42,0,0,0,2.052,3.7h4.4l-.2.213a.849.849,0,1,0,1.226,1.175l1.581-1.65a.849.849,0,0,0,0-1.175Z" transform="translate(-172.792 -282.873)" fill="#496c58"/>
      <path id="Trazado_898147" data-name="Trazado 898147" d="M206.427,252.892a.848.848,0,0,0,.983.643l2.246-.421a.849.849,0,0,0-.313-1.669l-.346.065,2-3.2a.72.72,0,0,1,.615-.34.712.712,0,0,1,.613.344l.373.607a.849.849,0,1,0,1.447-.889l-.373-.607a2.4,2.4,0,0,0-2.053-1.153h-.01a2.4,2.4,0,0,0-2.052,1.138l-1.94,3.1-.053-.23a.849.849,0,1,0-1.654.384Z" transform="translate(-182.586 -222.752)" fill="#496c58"/>
      <path id="Trazado_898148" data-name="Trazado 898148" d="M378.886,49.663l-3.635-9.605a2.456,2.456,0,0,0-2.286-1.579h-8.881a.849.849,0,0,0,0,1.7h7.267v5.68a.48.48,0,0,1-.479.479h-3.815a.849.849,0,0,0,0,1.7h3.815a2.179,2.179,0,0,0,2.177-2.177V40.183a.749.749,0,0,1,.614.475l3.362,8.885h-8.176a.849.849,0,1,0,0,1.7h9.406a.062.062,0,0,1,.061.062v1.569a.062.062,0,0,1-.062.062h-9.4a.849.849,0,0,0,0,1.7h8.478l-.417,4.761a.849.849,0,0,0,.771.92c.025,0,.05,0,.075,0a.849.849,0,0,0,.845-.775l.447-5.1a1.761,1.761,0,0,0,.966-1.569V51.3a1.761,1.761,0,0,0-1.129-1.641Z" transform="translate(-322.122 -38.479)" fill="#496c58"/>
      <path id="Trazado_898149" data-name="Trazado 898149" d="M150.928,52.872V51.3A1.763,1.763,0,0,0,149.8,49.66l-3.634-9.6a2.456,2.456,0,0,0-2.286-1.579h-9.459a.849.849,0,1,0,0,1.7h7.845v5.68a.48.48,0,0,1-.479.479H129.394a.48.48,0,0,1-.479-.479v-5.68H130.8a.849.849,0,0,0,0-1.7h-3.492a2.456,2.456,0,0,0-2.286,1.579l-3.634,9.6a1.763,1.763,0,0,0-1.129,1.643v1.569a1.762,1.762,0,0,0,.966,1.57L123.9,84.92a2.985,2.985,0,0,0,2.99,2.74H144.3a2.985,2.985,0,0,0,2.99-2.74l2.671-30.477A1.763,1.763,0,0,0,150.928,52.872Zm-28.907.062a.062.062,0,0,1-.062-.062V51.3a.062.062,0,0,1,.062-.062h27.147a.062.062,0,0,1,.062.062v1.569a.062.062,0,0,1-.062.062Zm4.591-12.276a.75.75,0,0,1,.6-.475v5.673a2.179,2.179,0,0,0,2.177,2.177h12.393a2.179,2.179,0,0,0,2.177-2.177V40.182a.749.749,0,0,1,.614.475l3.362,8.885H123.251ZM145.6,84.771a1.3,1.3,0,0,1-1.3,1.19H126.888a1.3,1.3,0,0,1-1.3-1.19l-2.641-30.139h25.293Z" transform="translate(-106.65 -38.478)" fill="#496c58"/>
      <path id="Trazado_898150" data-name="Trazado 898150" d="M383.841,248.388a.848.848,0,0,0-.92.771l-1.907,21.761a1.3,1.3,0,0,1-1.3,1.19h-8.5a.849.849,0,0,0,0,1.7h8.5a2.985,2.985,0,0,0,2.99-2.74l1.907-21.761A.849.849,0,0,0,383.841,248.388Z" transform="translate(-328.451 -224.627)" fill="#496c58"/>
      <path id="Trazado_898151" data-name="Trazado 898151" d="M3.74,76.368a.849.849,0,0,0,.771-.92L2.687,54.633h8.476a.849.849,0,1,0,0-1.7H1.76a.062.062,0,0,1-.062-.062V51.3a.062.062,0,0,1,.061-.062h9.4a.849.849,0,1,0,0-1.7H2.989l3.362-8.885a.749.749,0,0,1,.6-.475v5.673a2.179,2.179,0,0,0,2.177,2.177h3.823a.849.849,0,1,0,0-1.7H9.132a.48.48,0,0,1-.479-.479v-5.68h7.275a.849.849,0,1,0,0-1.7H7.049a2.456,2.456,0,0,0-2.286,1.579L1.129,49.663A1.761,1.761,0,0,0,0,51.3v1.569a1.761,1.761,0,0,0,.966,1.569L2.82,75.6a.849.849,0,0,0,.845.775c.025,0,.05,0,.075,0Z" transform="translate(0 -38.479)" fill="#496c58"/>
      <path id="Trazado_898152" data-name="Trazado 898152" d="M39.664,397.8H31.17a1.3,1.3,0,0,1-1.3-1.19l-.5-5.718a.849.849,0,1,0-1.691.148l.5,5.718a2.985,2.985,0,0,0,2.99,2.74h8.493a.849.849,0,1,0,0-1.7Z" transform="translate(-24.543 -350.32)" fill="#496c58"/>
    </g>
  </g>
</svg>
