<svg xmlns="http://www.w3.org/2000/svg" xmlns:xlink="http://www.w3.org/1999/xlink" width="44" height="44" viewBox="0 0 44 44">
  <defs>
    <filter id="Elipse_11753" x="0" y="0" width="44" height="44" filterUnits="userSpaceOnUse">
      <feOffset dy="3" input="SourceAlpha"/>
      <feGaussianBlur stdDeviation="3" result="blur"/>
      <feFlood flood-opacity="0.161"/>
      <feComposite operator="in" in2="blur"/>
      <feComposite in="SourceGraphic"/>
    </filter>
  </defs>
  <g id="Grupo_1108383" data-name="Grupo 1108383" transform="translate(-351.051 -3586)">
    <g transform="matrix(1, 0, 0, 1, 351.05, 3586)" filter="url(#Elipse_11753)">
      <circle id="Elipse_11753-2" data-name="Elipse 11753" cx="13" cy="13" r="13" transform="translate(9 6)" fill="#f1de5f"/>
    </g>
    <path id="Trazado_903406" data-name="Trazado 903406" d="M5.08-7.638a1.665,1.665,0,0,0,1.23-.431,1.616,1.616,0,0,0,.431-1.2A1.348,1.348,0,0,0,6.3-10.279,1.652,1.652,0,0,0,5.115-10.7a1.43,1.43,0,0,0-.954.33,1.077,1.077,0,0,0-.391.866H.888L.87-9.554a2.834,2.834,0,0,1,1.2-2.479,4.9,4.9,0,0,1,3.045-.949,5.368,5.368,0,0,1,3.335.954A3.2,3.2,0,0,1,9.7-9.325a2.671,2.671,0,0,1-.527,1.6A3.6,3.6,0,0,1,7.743-6.574a3.353,3.353,0,0,1,1.6,1.138,3.024,3.024,0,0,1,.563,1.85A3.26,3.26,0,0,1,8.556-.822,5.6,5.6,0,0,1,5.115.185,5.308,5.308,0,0,1,1.969-.76,3.046,3.046,0,0,1,.677-3.5l.018-.053H3.586a1.377,1.377,0,0,0,.431,1.037,1.522,1.522,0,0,0,1.1.413,1.939,1.939,0,0,0,1.314-.444,1.4,1.4,0,0,0,.514-1.1,1.714,1.714,0,0,0-.488-1.358A2.024,2.024,0,0,0,5.08-5.432H3.674V-7.638Z" transform="translate(368.051 3611)" fill="#12263f"/>
  </g>
</svg>
