<svg xmlns="http://www.w3.org/2000/svg" width="53.507" height="54.386" viewBox="0 0 53.507 54.386">
  <g id="layer1" transform="translate(-0.265 -280.331)">
    <path id="path8277" d="M4.736,1.935a4.672,4.672,0,0,0,4.9,7.7L16.1,15.381a15.468,15.468,0,0,0-5.017,9.525H9.437a4.676,4.676,0,1,0,0,3.96h1.644A15.468,15.468,0,0,0,14.374,36.6l-1.227,1.227a4.676,4.676,0,1,0,2.8,2.8l1.3-1.3a15.467,15.467,0,0,0,7.662,2.95v2.057a4.676,4.676,0,1,0,3.96,0V42.15a15.467,15.467,0,0,0,8.887-4.782,4.663,4.663,0,1,0,2.872-3.056l-.441-.441a15.468,15.468,0,0,0,1.543-5h1.73a4.676,4.676,0,1,0,0-3.96H41.724a15.468,15.468,0,0,0-2.879-7.178l5.3-5.3a4.676,4.676,0,1,0-2.8-2.8l-5.228,5.228a15.468,15.468,0,0,0-7.245-3.226v-2.2a4.676,4.676,0,1,0-3.96,0v2.069a15.467,15.467,0,0,0-5.5,1.587L12.433,6.833a4.674,4.674,0,0,0-1.084-4.9c-2.4-2.027-4.86-1.7-6.613,0Z" transform="translate(0.615 280.683)" fill="#6fc882" fill-rule="evenodd"/>
    <path id="path10715" d="M13.2,288.9a3.49,3.49,0,0,1-4.85,3.937,1.755,1.755,0,1,0-1.606,3.121c6.013,2.154,12.051-2.22,9.719-8.346A1.756,1.756,0,1,0,13.2,288.9Z" transform="translate(12.755 14.102)" fill="#4bac7d"/>
    <path id="circle10679" d="M15,292.036a3.057,3.057,0,1,1-3.057-3.057A3.057,3.057,0,0,1,15,292.036Z" transform="translate(19.972 20.023)" fill="#69bb9a" fill-rule="evenodd"/>
    <path id="circle10681" d="M12.557,288.715a3.934,3.934,0,1,0,3.937,3.937A3.947,3.947,0,0,0,12.557,288.715Zm0,1.755a2.179,2.179,0,1,1-2.176,2.182A2.171,2.171,0,0,1,12.557,290.47Z" transform="translate(19.361 19.411)" fill="#00003a" fill-rule="evenodd"/>
    <path id="path10719" d="M28.093,7.509a4.812,4.812,0,0,0-.841,1.241H25.519a22.6,22.6,0,0,1,0,3.96h1.73a4.892,4.892,0,0,0,.88,1.278,21.827,21.827,0,0,0-.039-6.479Zm-6.545,13.7a4.682,4.682,0,0,0,.323,3.483,17.225,17.225,0,0,0,5.161-6.708,4.673,4.673,0,0,0-2.612.168,25.256,25.256,0,0,0-2.872,3.056Zm-8.887,4.782-3.96.129v2.057a4.569,4.569,0,0,0-1.172.784,14.657,14.657,0,0,0,6.2-.084,4.666,4.666,0,0,0-1.072-.7Z" transform="translate(16.82 296.84)" fill="#4bac7d"/>
    <g id="Grupo_1108191" data-name="Grupo 1108191" transform="translate(0.265 280.331)">
      <path id="path10711" d="M27.457,280.331a5.56,5.56,0,0,0-5.546,5.546,5.5,5.5,0,0,0,2.691,4.687v.881a16.26,16.26,0,0,0-4.425,1.3l-4.538-4.074a.877.877,0,1,0-1.172,1.306l4.937,4.432a.877.877,0,0,0,.982.13,14.562,14.562,0,0,1,5.177-1.494.877.877,0,0,0,.793-.874V290.1a.877.877,0,0,0-.505-.8,3.791,3.791,0,1,1,3.211,0,.877.877,0,0,0-.505.795V292.3a.877.877,0,0,0,.738.865,14.568,14.568,0,0,1,6.822,3.039.877.877,0,0,0,1.17-.063l5.22-5.22a.877.877,0,0,0,.2-.92,3.792,3.792,0,1,1,2.272,2.272.877.877,0,0,0-.92.2l-5.287,5.287a.877.877,0,1,0,1.24,1.24l4.96-4.96A5.546,5.546,0,1,0,40.94,290l-4.41,4.41a16.227,16.227,0,0,0-6.219-2.763v-1.086A5.511,5.511,0,0,0,33,285.879v0a5.56,5.56,0,0,0-5.546-5.546ZM4.721,281.992a5.5,5.5,0,0,0,5.248,9.246L15.43,296.1a16.247,16.247,0,0,0-4.458,8.573H10.5A5.5,5.5,0,0,0,.265,307.524,5.56,5.56,0,0,0,5.81,313.07h0a5.512,5.512,0,0,0,4.686-2.691h.516a16.222,16.222,0,0,0,2.853,6.7l-.42.42a5.546,5.546,0,1,0,4.036,4.036l.509-.509a16.22,16.22,0,0,0,6.611,2.551v.906a5.546,5.546,0,1,0,5.708,0v-1.038a16.26,16.26,0,0,0,7.1-3.447,5.358,5.358,0,0,0,1.431,3.245A5.546,5.546,0,1,0,41.92,313.9a16.25,16.25,0,0,0,1.059-3.517h.56a5.512,5.512,0,0,0,4.686,2.691h0a5.546,5.546,0,1,0,0-11.091h0a5.512,5.512,0,0,0-4.686,2.691h-.613a16.319,16.319,0,0,0-1.079-3.821.878.878,0,1,0-1.6.718,14.567,14.567,0,0,1,1.156,4.093.877.877,0,0,0,.87.764H44a.877.877,0,0,0,.795-.505,3.791,3.791,0,1,1,0,3.21.877.877,0,0,0-.795-.505H42.274a.877.877,0,0,0-.87.764,14.572,14.572,0,0,1-1.453,4.713.877.877,0,0,0,.163,1.016l.44.44a.878.878,0,0,0,.92.2,3.805,3.805,0,1,1-2.328,2.479.877.877,0,0,0-1.484-.846,14.567,14.567,0,0,1-8.369,4.5.877.877,0,0,0-.737.865v2.183a.877.877,0,0,0,.505.8,3.791,3.791,0,1,1-3.211,0,.877.877,0,0,0,.505-.795v-2.054a.877.877,0,0,0-.79-.873,14.572,14.572,0,0,1-7.216-2.779.877.877,0,0,0-1.141.085l-1.3,1.3a.877.877,0,0,0-.2.92,3.792,3.792,0,1,1-2.272-2.272.877.877,0,0,0,.92-.2l1.225-1.225a.877.877,0,0,0,.063-1.17,14.564,14.564,0,0,1-3.1-7.281.877.877,0,0,0-.87-.766H10.035a.877.877,0,0,0-.795.505,3.791,3.791,0,1,1,0-3.21.877.877,0,0,0,.795.505h1.638a.877.877,0,0,0,.87-.764,14.567,14.567,0,0,1,4.725-8.97.877.877,0,0,0,0-1.309l-6.452-5.739a.877.877,0,0,0-.882-.168,3.787,3.787,0,0,1-3.973-6.236c1.849-1.79,3.9-1.254,5.38.02A3.779,3.779,0,0,1,12.2,287.2a.877.877,0,1,0,1.648.6,5.551,5.551,0,0,0-1.287-5.81c-2.422-2.1-5.46-2.3-7.843,0Z" transform="translate(-0.265 -280.331)" fill="#00003a" fill-rule="evenodd"/>
      <path id="path8525" d="M14.208,290.365A4.263,4.263,0,1,1,9.946,286.1,4.263,4.263,0,0,1,14.208,290.365Z" transform="translate(12.28 -266.969)" fill="#69bb9a" fill-rule="evenodd"/>
      <path id="circle10677" d="M10.559,285.838a5.138,5.138,0,1,0,5.141,5.141A5.156,5.156,0,0,0,10.559,285.838Zm0,1.755a3.383,3.383,0,1,1-3.386,3.386A3.374,3.374,0,0,1,10.559,287.593Z" transform="translate(11.667 -267.581)" fill="#00003a" fill-rule="evenodd"/>
    </g>
  </g>
</svg>
