<svg xmlns="http://www.w3.org/2000/svg" width="80" height="80" viewBox="0 0 80 80">
  <g id="Grupo_1108200" data-name="Grupo 1108200" transform="translate(-180.051 -4916)">
    <g id="Elipse_11752" data-name="Elipse 11752" transform="translate(180.051 4916)" fill="#f9f1be" stroke="#fff" stroke-width="5">
      <circle cx="40" cy="40" r="40" stroke="none"/>
      <circle cx="40" cy="40" r="37.5" fill="none"/>
    </g>
    <g id="Grupo_1108202" data-name="Grupo 1108202" transform="translate(194.299 4931.341)">
      <g id="Grupo_1108201" data-name="Grupo 1108201" transform="translate(1.209)">
        <path id="Trazado_903185" data-name="Trazado 903185" d="M329.3,16.516H314.983A2.389,2.389,0,0,0,312.6,18.9V30.039a2.389,2.389,0,0,0,2.386,2.386h4.947l.452,1.808a1.814,1.814,0,0,0,3.52,0l.452-1.808H329.3a2.389,2.389,0,0,0,2.386-2.386V18.9A2.389,2.389,0,0,0,329.3,16.516Zm.8,13.523a.8.8,0,0,1-.8.8h-6.189l-.753,3.013a.223.223,0,0,1-.433,0l-.753-3.013h-6.189a.8.8,0,0,1-.8-.8V18.9a.8.8,0,0,1,.8-.8H329.3a.8.8,0,0,1,.8.8V30.039Z" transform="translate(-282.603 -14.925)" fill="#496c58"/>
        <path id="Trazado_903186" data-name="Trazado 903186" d="M370.1,58.83v-.319a3.058,3.058,0,0,0-1.7-2.75,1.481,1.481,0,0,1-.386-.278l-1.1-1.1-1.1,1.1a1.481,1.481,0,0,1-.386.278,3.058,3.058,0,0,0-1.7,2.75v.319a2.386,2.386,0,0,0,.8,4.636H369.3a2.386,2.386,0,0,0,.8-4.636Zm-3.952-1.646a3.068,3.068,0,0,0,.771-.548,3.066,3.066,0,0,0,.771.548,1.476,1.476,0,0,1,.82,1.327v.182h-3.182v-.182A1.476,1.476,0,0,1,366.147,57.184Zm3.157,4.691h-4.773a.8.8,0,1,1,0-1.591H369.3a.8.8,0,1,1,0,1.591Z" transform="translate(-327.378 -49.148)" fill="#496c58"/>
        <path id="Trazado_903187" data-name="Trazado 903187" d="M150.618,165.161a3.185,3.185,0,0,0-3.182,3.182,1.593,1.593,0,0,0,1.591,1.591h3.182a1.593,1.593,0,0,0,1.591-1.591A3.185,3.185,0,0,0,150.618,165.161Zm1.591,3.182h-3.182a1.591,1.591,0,0,1,3.183,0Z" transform="translate(-133.351 -149.252)" fill="#496c58"/>
        <path id="Trazado_903188" data-name="Trazado 903188" d="M74.916,35.468a4.744,4.744,0,0,0,.468-2.059V25.5a8.848,8.848,0,0,0-5.4-8.147,3.18,3.18,0,0,0,.982-5.55l.882-2.647A6.955,6.955,0,0,0,65.247,0H61.861a12.7,12.7,0,0,0-6.011,1.51A3.108,3.108,0,0,0,53.186,0h-.835a4.013,4.013,0,0,0-3.589,5.808l.278.556a6.949,6.949,0,0,0-.7,3.034,6.877,6.877,0,0,0,1.626,4.451A3.182,3.182,0,0,0,53.111,17.5h.16a7.89,7.89,0,0,0,.47,1.512,5.007,5.007,0,0,0-2.221,4.154V33.409a4.778,4.778,0,0,0,4.773,4.773v2.151a10.233,10.233,0,0,0-1.591,5.49v3.5H75.383v-3.5a10.31,10.31,0,0,0-.129-1.617A5.975,5.975,0,0,0,76.974,40,6.047,6.047,0,0,0,74.916,35.468Zm-7.709-1.746,1.485-.247a4.853,4.853,0,0,1,.795-.066,1.908,1.908,0,0,1,1.358.563l1.125-1.125A3.494,3.494,0,0,0,70.611,32V28.636h3.182v4.773a3.185,3.185,0,0,1-3.182,3.182H67.058a3.026,3.026,0,0,0,.37-1.454v-.273A3.025,3.025,0,0,0,67.206,33.722ZM69.02,15.909V12.727a1.591,1.591,0,1,1,0,3.182ZM49.929,9.4a5.349,5.349,0,0,1,.562-2.38l.327-.655L50.185,5.1a2.422,2.422,0,0,1,2.167-3.506h.835a1.516,1.516,0,0,1,.479,2.954l-.806.269.5,1.509.806-.269a3.1,3.1,0,0,0,2.124-2.947c0-.007,0-.015,0-.022a11.115,11.115,0,0,1,5.569-1.494h3.386a5.364,5.364,0,0,1,5.089,7.06l-.84,2.521a3.184,3.184,0,0,0-.475-.036h-.057A2.393,2.393,0,0,0,67.1,9.305a4.8,4.8,0,0,1-3.373-2.577L62.812,4.9,61.338,6.738A7.444,7.444,0,0,1,55.5,9.545a.8.8,0,0,1,0-1.591h.136a.79.79,0,0,1,.562.233l.329.33L57.65,7.392l-.329-.33a2.371,2.371,0,0,0-1.687-.7H55.5A2.389,2.389,0,0,0,53.111,8.75v2.386a3.174,3.174,0,0,0-2.379,1.072A5.3,5.3,0,0,1,49.929,9.4ZM61.065,22.273A6.371,6.371,0,0,1,54.7,15.909V11a2.374,2.374,0,0,0,.8.136v3.182h1.591V11a9.028,9.028,0,0,0,1.591-.432v3.754H60.27V9.784A9.052,9.052,0,0,0,61.861,8.53v5.788h1.591V9.054a6.341,6.341,0,0,0,1.591,1.19v4.074h1.591V10.83c.052.012.1.025.156.036a.8.8,0,0,1,.639.78v4.264A6.371,6.371,0,0,1,61.065,22.273Zm3.641.7-.072.506a2.3,2.3,0,0,1-4.4.528l-.081-.2a7.994,7.994,0,0,0,.915.054A7.9,7.9,0,0,0,64.706,22.978ZM51.52,14.318a1.593,1.593,0,0,1,1.591-1.591v3.182A1.593,1.593,0,0,1,51.52,14.318Zm2.994,6.1a7.994,7.994,0,0,0,3.739,2.935l.5,1.254a3.886,3.886,0,0,0,7.455-.894l.285-1.993a7.973,7.973,0,0,0,2.078-3.179A7.253,7.253,0,0,1,73.793,25.5v1.547H70.611V25.784A3.488,3.488,0,0,0,69.582,23.3l-1.125,1.125a1.908,1.908,0,0,1,.562,1.358v6.052c-.2.014-.4.037-.59.069l-2.4.4a3.041,3.041,0,0,0-3.64.254l-3.919-.653c-.2-.033-.392-.055-.59-.069V27.375a1.908,1.908,0,0,1,.562-1.358l-1.125-1.125a3.485,3.485,0,0,0-1.013,2.153h-3.2V23.166A3.412,3.412,0,0,1,54.514,20.413Zm-1.4,13V28.636h3.182V32a3.5,3.5,0,0,0-1.358.844l1.125,1.125a1.908,1.908,0,0,1,1.358-.563,4.853,4.853,0,0,1,.795.066l4.717.786.426-.426a1.454,1.454,0,0,1,2.483,1.028v.273a1.456,1.456,0,0,1-1.454,1.454H56.292A3.185,3.185,0,0,1,53.111,33.409ZM73.792,47.727h-7.3l-.319-1.594a4.4,4.4,0,0,0-2.364-3.095L63.1,44.461a2.823,2.823,0,0,1,1.515,1.984l.256,1.282H56.293v-1.9a8.647,8.647,0,0,1,1.233-4.459h2.916a8.337,8.337,0,0,1,5.934,2.458,2.471,2.471,0,0,0,3.8-.377,4.975,4.975,0,0,1,2.473-1.923,8.645,8.645,0,0,1,1.14,4.3v1.9h0Zm-.134-7.6-.337-.506-1.093.364a6.572,6.572,0,0,0-3.374,2.577A.88.88,0,0,1,67.5,42.7a9.917,9.917,0,0,0-7.059-2.924H57.883V38.181H70.611a4.758,4.758,0,0,0,3.38-1.407A4.449,4.449,0,0,1,75.383,40a4.4,4.4,0,0,1-.632,2.281A10.278,10.278,0,0,0,73.659,40.127Z" transform="translate(-43.798)" fill="#496c58"/>
        <path id="Trazado_903189" data-name="Trazado 903189" d="M5.967,286.689l.811.811L7.9,286.375,5.531,284l-.8,1.591-2.4-2.4-1.125,1.125,3.962,3.962Z" transform="translate(-1.209 -255.915)" fill="#496c58"/>
        <path id="Trazado_903190" data-name="Trazado 903190" d="M9.426,359.207l1.023-.256-.386-1.543-3.749.937,1.674,1.674L4.437,361.2l.5,1.509,5.994-2Z" transform="translate(-4.126 -322.981)" fill="#496c58"/>
        <path id="Trazado_903191" data-name="Trazado 903191" d="M39.963,397.564,34.5,400.84l2.806.935-3.067,3.067,1.125,1.125,4.887-4.887-1.967-.656,2.494-1.5Z" transform="translate(-31.06 -359.269)" fill="#496c58"/>
        <path id="Trazado_903192" data-name="Trazado 903192" d="M351.445,270.405l.737,2.212,7.247-5.435-.955-1.273-5.481,4.11-.853-2.56-4.092,4.092,1.125,1.125Z" transform="translate(-314.639 -240.296)" fill="#496c58"/>
        <path id="Trazado_903193" data-name="Trazado 903193" d="M363.1,394.034l-5.119-4.1-.994,1.242,2.835,2.268-2.22.74,4.887,4.887,1.125-1.125-3.067-3.067Z" transform="translate(-322.716 -352.378)" fill="#496c58"/>
        <path id="Trazado_903194" data-name="Trazado 903194" d="M361.831,344.932l-8.856.984.176,1.581,5.463-.607-1.369,2.054,8.458.94.176-1.581-5.86-.651Z" transform="translate(-319.091 -311.707)" fill="#496c58"/>
      </g>
    </g>
  </g>
</svg>
