<svg xmlns="http://www.w3.org/2000/svg" width="85" height="85" viewBox="0 0 85 85">
  <g id="Grupo_1108204" data-name="Grupo 1108204" transform="translate(-180 -5171.091)">
    <rect id="Rectángulo_402740" data-name="Rectángulo 402740" width="85" height="85" rx="10" transform="translate(180 5171.091)" fill="#fcefec"/>
    <path id="Trazado_903195" data-name="Trazado 903195" d="M46.8,23.4A11.7,11.7,0,1,0,36.209,6.761L33.076,5.6a4.733,4.733,0,0,0,.074-.729,4.918,4.918,0,1,0-.745,2.56L35.533,8.59a11.487,11.487,0,0,0,.16,6.765L24.97,19.9A11.644,11.644,0,0,0,10.5,14.415L7.8,8.747a4.85,4.85,0,1,0-2.929,1,4.794,4.794,0,0,0,1.172-.159l2.694,5.662a11.68,11.68,0,0,0-.625,19.813L6.333,38.272a4.825,4.825,0,0,0-1.458-.247,4.933,4.933,0,1,0,3.162,1.2l1.787-3.213a11.6,11.6,0,0,0,11.91-1.388l3.838,4.222A11.644,11.644,0,0,0,22.425,46.8a11.776,11.776,0,0,0,.145,1.75l-4.515,1.072a4.846,4.846,0,1,0,.47,2.053c0-.054-.015-.1-.016-.158l4.507-1.068A11.7,11.7,0,1,0,44.43,41.268l5.727-3.724A4.971,4.971,0,1,0,49.1,35.906l-5.741,3.732A11.765,11.765,0,0,0,39,36.177l4.759-13.192A11.658,11.658,0,0,0,46.8,23.4ZM28.275,7.8A2.925,2.925,0,1,1,31.2,4.875,2.929,2.929,0,0,1,28.275,7.8ZM1.95,4.875A2.925,2.925,0,1,1,4.875,7.8,2.929,2.929,0,0,1,1.95,4.875Zm2.925,40.95A2.925,2.925,0,1,1,7.8,42.9,2.929,2.929,0,0,1,4.875,45.825ZM13.65,54.6a2.925,2.925,0,1,1,2.925-2.925A2.929,2.929,0,0,1,13.65,54.6ZM53.625,31.2A2.925,2.925,0,1,1,50.7,34.125,2.929,2.929,0,0,1,53.625,31.2ZM41.058,19.562A4.889,4.889,0,0,1,45.825,15.6h1.95a4.889,4.889,0,0,1,4.767,3.962,9.677,9.677,0,0,1-11.484,0ZM46.8,13.65a2.925,2.925,0,1,1,2.925-2.925A2.929,2.929,0,0,1,46.8,13.65Zm0-11.7a9.735,9.735,0,0,1,7.359,16.126,6.906,6.906,0,0,0-3.882-3.944,4.875,4.875,0,1,0-6.954,0,6.907,6.907,0,0,0-3.882,3.944A9.735,9.735,0,0,1,46.8,1.95ZM4.875,25.35a9.75,9.75,0,1,1,17.1,6.391,6.908,6.908,0,0,0-3.888-3.96,4.875,4.875,0,1,0-6.954,0A6.9,6.9,0,0,0,7.251,31.71,9.7,9.7,0,0,1,4.875,25.35Zm6.805-.975A2.925,2.925,0,1,1,14.606,27.3,2.929,2.929,0,0,1,11.681,24.375ZM8.867,33.2a4.888,4.888,0,0,1,4.764-3.95h1.95a4.887,4.887,0,0,1,4.769,3.975A9.675,9.675,0,0,1,8.867,33.2Zm19.5,21.45a4.888,4.888,0,0,1,4.764-3.95h1.95a4.887,4.887,0,0,1,4.769,3.975,9.675,9.675,0,0,1-11.482-.026Zm5.739-5.9a2.925,2.925,0,1,1,2.925-2.925A2.929,2.929,0,0,1,34.106,48.75Zm9.77-1.95a9.7,9.7,0,0,1-2.4,6.391,6.908,6.908,0,0,0-3.888-3.96,4.875,4.875,0,1,0-6.954,0,6.9,6.9,0,0,0-3.878,3.928A9.745,9.745,0,1,1,43.875,46.8ZM37.166,35.515A11.539,11.539,0,0,0,27.015,37.53l-3.838-4.222a11.615,11.615,0,0,0,2.555-11.613L36.456,17.15a11.764,11.764,0,0,0,5.471,5.173Zm0,0" transform="translate(193.25 5184.341)" fill="#f5b2a4"/>
  </g>
</svg>
